<svg id="图层_1" data-name="图层 1" xmlns="http://www.w3.org/2000/svg" viewBox="0 0 24 24"><title>储存</title><path d="M16.25,3.5H7.75V7.25A1.25,1.25,0,0,0,8.94578,8.49885L9,8.5h6a1.25,1.25,0,0,0,1.25-1.25ZM17,15a.75.75,0,0,1,.04407,1.49873L17,16.5H7a.75.75,0,0,1-.04407-1.49873L7,15Zm.75146-11.482L17.75,7.25A2.75,2.75,0,0,1,15,10H9A2.75,2.75,0,0,1,6.25,7.25L6.24878,3.518a3.19154,3.19154,0,0,0-1.49507.339,2.135,2.135,0,0,0-.89672.89672A4.5924,4.5924,0,0,0,3.5,7.12777l.00017,9.84769.00149.20148A4.06383,4.06383,0,0,0,3.857,19.24629a2.135,2.135,0,0,0,.89672.89672,4.23561,4.23561,0,0,0,2.171.35628L7.12777,20.5h9.74446a4.5924,4.5924,0,0,0,2.37406-.357,2.135,2.135,0,0,0,.89672-.89672,4.23561,4.23561,0,0,0,.35628-2.17095L20.5,16.87223V7.12777a4.5924,4.5924,0,0,0-.357-2.37406,2.135,2.135,0,0,0-.89672-.89672A3.19123,3.19123,0,0,0,17.75146,3.518ZM17.75,2l.002.0189a4.667,4.667,0,0,1,2.16007.49333l.04161.022a3.63031,3.63031,0,0,1,1.46114,1.41987l.0509.09217A5.79955,5.79955,0,0,1,22,7.12777v9.74446l-.001.22154a5.55551,5.55551,0,0,1-.51122,2.81831l-.022.04161a3.63031,3.63031,0,0,1-1.41987,1.46114l-.09217.0509A5.79955,5.79955,0,0,1,16.87223,22H7.12777l-.22154-.001a5.55551,5.55551,0,0,1-2.81831-.51122l-.04161-.022a3.63037,3.63037,0,0,1-1.46114-1.41987l-.0509-.09217A5.79955,5.79955,0,0,1,2,16.87223V7.12777a5.8843,5.8843,0,0,1,.51223-3.03985l.022-.04161A3.63037,3.63037,0,0,1,3.95414,2.58517l.09217-.0509a4.62681,4.62681,0,0,1,2.20215-.51539L6.25,2Z"/></svg>