<?xml version="1.0" encoding="UTF-8"?>
<svg width="24px" height="24px" viewBox="0 0 24 24" version="1.1" xmlns="http://www.w3.org/2000/svg" xmlns:xlink="http://www.w3.org/1999/xlink">
    <title>ic_find_h</title>
    <g id="ic_find_h" stroke="none" stroke-width="1" fill="none" fill-rule="evenodd">
        <g id="tab/ic_备份-46">
            <g id="symbol/frame/symbol_grid24"></g>
            <path d="M12,2 C6.47725,2 2,6.47725 2,12 C2,17.52275 6.47725,22 12,22 C17.523,22 22,17.52275 22,12 C22,6.47725 17.523,2 12,2" id="形状结合" fill="#FF1949" fill-rule="nonzero"></path>
            <path d="M11.9726791,4 C13.1059951,4 14.1844507,4.23254085 15.1620355,4.65206196 C15.7549573,5.1951552 15.8877854,6.16952546 13.3046026,6.16952546 L13.3046026,6.16952546 L11.918801,6.16952546 C11.6472989,6.16952546 11.4271493,6.38477394 11.4271493,6.65046403 L11.4271493,6.65046403 L11.4271493,8.22949532 C11.4271493,8.75831855 10.9842348,9.19137247 10.4431326,9.19137247 L10.4431326,9.19137247 L9.29792645,9.19137247 C8.68936051,9.41438128 8.03420888,10.9662437 11.6099193,11.036218 C12.2234243,11.0482238 12.8127452,10.9774349 13.4967444,11.3892574 C14.1807436,11.8010798 14.6860685,12.9861204 13.9840404,15.7005373 C13.5575559,17.3495549 12.526476,18.4031534 12.2556412,18.4576026 C11.1995737,18.6699168 11.0327083,18.0531346 10.9011961,17.3141252 L10.8574968,17.0642314 C10.7680319,16.5592686 10.652114,16.0348897 10.256751,15.7005373 C9.20244956,14.8089311 8.31414754,14.5209717 8.31414754,13.4633252 L8.31414754,13.4633252 L8.31414754,12.688913 C8.31414754,12.4234553 8.09423562,12.2079744 7.82202033,12.2079744 C6.36189286,12.1123807 5.38365799,11.839475 4.88731572,11.3892574 C4.41741832,10.9630271 4.20736493,10.4168708 4.25715556,9.75078829 C5.21938481,6.42964647 8.30954385,4 11.9726791,4 Z M19.3660765,8.84719631 C19.7742367,9.80005278 20,10.8480625 20,11.9482831 C20,12.9771334 19.8025768,13.9603269 19.443193,14.8627476 C19.3429013,14.9261623 19.2414476,14.9003501 19.1400931,14.8513439 C18.9655161,14.7669336 18.8569377,14.6786933 18.6985228,14.5234837 C17.7928934,13.6361785 17.3226533,11.6301713 19.2462088,8.94257509 C19.2832783,8.88564279 19.3204367,8.85495951 19.3574525,8.84739151 Z" id="形状结合" fill-opacity="0.8" fill="#FFFFFF" fill-rule="nonzero"></path>
        </g>
    </g>
</svg>