<?xml version="1.0" encoding="UTF-8"?>
<svg width="24px" height="24px" viewBox="0 0 24 24" version="1.1" xmlns="http://www.w3.org/2000/svg" xmlns:xlink="http://www.w3.org/1999/xlink">
    <title>ic_home</title>
    <g id="ic_home" stroke="none" stroke-width="1" fill="none" fill-rule="evenodd">
        <path d="M18.9205978,2.60605496 C19.4332562,2.61954597 19.8456258,3.01657164 19.8902875,3.51525782 L19.893945,3.63201557 L19.6152645,14.2218756 C19.5611054,16.2799209 17.9571732,17.9484946 15.9263403,18.1047243 L15.7218756,18.1152645 L5.13201557,18.393945 C4.57992195,18.4084738 4.12058374,17.9726914 4.10605496,17.4205978 C4.09256395,16.9079394 4.46735146,16.475259 4.96299842,16.4044305 L5.0794022,16.3946372 L15.6692622,16.1159567 C16.6819512,16.089307 17.5060374,15.312175 17.6063975,14.3196841 L17.6159567,14.1692622 L17.8946372,3.5794022 C17.909166,3.02730859 18.3685042,2.59152618 18.9205978,2.60605496 Z" id="路径" fill-opacity="0.2" fill="#000000" fill-rule="nonzero" transform="translate(11.999824, 10.500000) scale(1, -1) rotate(-315.000000) translate(-11.999824, -10.500000) "></path>
        <path d="M11.3117958,4.65995815 C11.6890374,4.30206227 12.2776095,4.29336265 12.6529233,4.62758192 L12.6529233,4.62758192 L12.6883166,4.65995815 L21,12.5839983 L21,19.25 C21,20.8476809 19.75108,22.1536609 18.1762728,22.2449073 L18,22.25 L6,22.25 C4.34314575,22.25 3,20.9068542 3,19.25 L3,19.25 L3,12.5839983 Z" id="路径-11" fill-opacity="0.2" fill="#000000" fill-rule="nonzero"></path>
        <path d="M12,13.5 C13.6568542,13.5 15,14.8431458 15,16.5 L15,20.25 L15,20.25 L9,20.25 L9,16.5 C9,14.8431458 10.3431458,13.5 12,13.5 Z" id="矩形" fill-opacity="0.25" fill="#000000"></path>
        <g id="编组" fill="#000000" fill-opacity="0.9" opacity="0">
            <g id="Symbol/color-light/colorPrimary">
                <rect id="color/#000000" x="0" y="0" width="24" height="24"></rect>
            </g>
        </g>
    </g>
</svg>