<?xml version="1.0" encoding="UTF-8"?>
<svg width="96px" height="96px" viewBox="0 0 96 96" version="1.1" xmlns="http://www.w3.org/2000/svg" xmlns:xlink="http://www.w3.org/1999/xlink">
    <title>ic_听歌识曲</title>
    <g id="ic_听歌识曲" stroke="none" stroke-width="1" fill="none" fill-rule="evenodd">
        <g id="编组">
            <rect id="Rectangle" x="0" y="0" width="96" height="96"></rect>
            <circle id="椭圆形" fill="#FF1949" opacity="0.100000001" cx="48" cy="48" r="44"></circle>
            <circle id="椭圆形" fill="#FF1949" cx="19" cy="77" r="3"></circle>
            <circle id="椭圆形备份" fill="#FF1949" cx="77" cy="77" r="3"></circle>
            <circle id="椭圆形" fill="#FF1949" opacity="0.100000001" cx="48" cy="48" r="28"></circle>
            <path d="M48,4 C72.300529,4 92,23.699471 92,48 C92,60.119952 87.0996747,71.0953717 79.1722357,79.0530476 L74.8978145,74.8422724 C81.7581486,67.9678315 86,58.4792845 86,48 C86,27.0131795 68.9868205,10 48,10 C27.0131795,10 10,27.0131795 10,48 C10,58.4343848 14.2055799,67.8865038 21.0141482,74.7537655 L20.9627229,74.7535561 L16.7011312,78.9254143 C8.84817284,70.9782192 4,60.0552853 4,48 C4,23.699471 23.699471,4 48,4 Z M54.446917,22.6840764 C56.1294794,25.4004557 55.8149319,28.146834 53.5032745,30.9232112 C50.0357886,35.087777 47.3659636,34.7249735 49.5609816,41.9045537 C51.0243269,46.6909405 52.8110407,52.9390842 54.921123,60.6489848 C56.4012372,65.4902201 53.1239896,72.0475658 48.9972212,74.2371195 C44.8704529,76.4266733 38.9658111,74.9812129 37.4589098,70.0523607 C35.9520084,65.1235085 39.5743293,61.0058569 41.7092212,59.3677483 C42.9380603,58.4248566 47.4838752,55.2986432 46.7640038,52.9440499 L40.8927632,32.6444183 C40.5276844,31.3821697 41.0861705,30.0354613 42.237396,29.402031 L54.446917,22.6840764 Z M73.3941358,36.1901453 C75.1026623,39.8583362 76,43.8685829 76,48 C76,52.9798559 74.6955857,57.7765556 72.2549154,61.9975911 C71.4255572,63.431931 69.5904672,63.9223655 68.1561274,63.0930072 C66.7217875,62.263649 66.231353,60.4285591 67.0607113,58.9942192 C68.9769906,55.6800956 70,51.918201 70,48 C70,44.7483581 69.2960242,41.6022555 67.9551657,38.7234444 C67.2556145,37.2215143 67.9060711,35.436861 69.4080012,34.7373098 C70.9099313,34.0377586 72.6945845,34.6882152 73.3941358,36.1901453 Z M26.5356816,34.8283928 C28.0405878,35.5215185 28.6986659,37.3033754 28.0055402,38.8082816 C26.6901151,41.6643168 26,44.7804774 26,48 C26,51.9105267 27.0189946,55.6653931 28.9281505,58.9749335 C29.7560545,60.4101132 29.2637603,62.2447051 27.8285806,63.0726092 C26.3934008,63.9005132 24.5588089,63.408219 23.7309049,61.9730392 C21.2992924,57.7578153 20,52.9700868 20,48 C20,43.9094624 20.8796499,39.9374725 22.5557927,36.2982514 C23.2489184,34.7933452 25.0307753,34.135267 26.5356816,34.8283928 Z" id="形状结合" fill="#FF1949" fill-rule="nonzero"></path>
        </g>
    </g>
</svg>