<?xml version="1.0" encoding="UTF-8"?>
<svg width="40px" height="40px" viewBox="0 0 40 40" version="1.1" xmlns="http://www.w3.org/2000/svg" xmlns:xlink="http://www.w3.org/1999/xlink">
    <title>ic_music_ranking</title>
    <g id="ic_music_ranking" stroke="none" stroke-width="1" fill="none" fill-rule="evenodd">
        <g id="编组" transform="translate(7.000000, 9.000000)" fill="#FF1949">
            <path d="M25.8385093,13.944777 L25.8385093,20.1150762 C25.8385093,21.3301027 24.8535358,22.3150762 23.6385093,22.3150762 L20.9916431,22.3150762 C19.7766167,22.3150762 18.7916431,21.3301027 18.7916431,20.1150762 L18.7916431,13.944777 C18.7916431,12.7297505 19.7766167,11.744777 20.9916431,11.744777 L23.6385093,11.744777 C24.8535358,11.744777 25.8385093,12.7297505 25.8385093,13.944777 Z" id="路径" style="mix-blend-mode: multiply;" opacity="0.600000024"></path>
            <path d="M16.4426877,2.2 L16.4426877,20.1150762 C16.4426877,21.3301027 15.4577142,22.3150762 14.2426877,22.3150762 L11.5958216,22.3150762 C10.3807951,22.3150762 9.39582157,21.3301027 9.39582157,20.1150762 L9.39582157,2.2 C9.39582157,0.98497355 10.3807951,-8.69720391e-15 11.5958216,-8.03222223e-15 L14.2426877,-8.03222223e-15 C15.4577142,-8.25541897e-15 16.4426877,0.98497355 16.4426877,2.2 Z" id="路径" style="mix-blend-mode: multiply;" opacity="0.800000012"></path>
            <path d="M7.04686618,9.24686618 L7.04686618,20.1150762 C7.04686618,21.3301027 6.06189263,22.3150762 4.84686618,22.3150762 L2.2,22.3150762 C0.98497355,22.3150762 -8.55229954e-16,21.3301027 -1.00402778e-15,20.1150762 L-1.00402778e-15,9.24686618 C-1.1528256e-15,8.03183973 0.98497355,7.04686618 2.2,7.04686618 L4.84686618,7.04686618 C6.06189263,7.04686618 7.04686618,8.03183973 7.04686618,9.24686618 Z" id="路径" style="mix-blend-mode: multiply;" opacity="0.600000024"></path>
        </g>
    </g>
</svg>