<?xml version="1.0" encoding="UTF-8"?>
<svg width="40px" height="40px" viewBox="0 0 40 40" version="1.1" xmlns="http://www.w3.org/2000/svg" xmlns:xlink="http://www.w3.org/1999/xlink">
    <title>ic_music_localmusic</title>
    <g id="ic_music_localmusic" stroke="none" stroke-width="1" fill="none" fill-rule="evenodd">
        <g id="编组-12" transform="translate(8.000000, 7.000000)" fill="#FF1949">
            <path d="M18,0 C19.6568542,-3.04359188e-16 21,1.34314575 21,3 L21,14 C21,15.6568542 19.6568542,17 18,17 L13.482,17 L13.4828262,13.624346 C13.4828262,11.2165074 14.2450503,11.485813 15.6609189,10.6167105 L15.8097153,10.5225861 C16.8171763,9.86593072 17.1850985,9.02506871 16.9134819,8 L16.9134819,8 L12.5313284,8.91284417 C12.008319,9.02179201 11.6334972,9.48273864 11.6334972,10.016975 L11.6334972,10.016975 L11.6334972,15.0000129 C11.6334972,15.8169103 9.87976364,16.367843 9.39615714,16.5478042 C9.1463664,16.6407571 8.83330606,16.7904946 8.51667614,16.9999732 L6,17 C4.34314575,17 3,15.6568542 3,14 L3,3 C3,1.34314575 4.34314575,1.19253761e-15 6,0 L18,0 Z" id="形状结合" style="mix-blend-mode: multiply;" opacity="0.600000024"></path>
            <g id="编组" transform="translate(0.000000, 3.000000)" opacity="0.7">
                <path d="M21,0 C22.6568542,-3.04359188e-16 24,1.34314575 24,3 L24,21 C24,22.6568542 22.6568542,24 21,24 L3,24 C1.34314575,24 2.02906125e-16,22.6568542 0,21 L0,3 C-2.02906125e-16,1.34314575 1.34314575,3.04359188e-16 3,0 L21,0 Z M16.9134819,5 L12.5313284,5.91284417 C12.008319,6.02179201 11.6334972,6.48273864 11.6334972,7.01697504 L11.6334972,7.01697504 L11.6334972,12.0000129 C11.6334972,12.8169103 9.87976364,13.367843 9.39615714,13.5478042 C8.55597584,13.8604551 7,14.8155337 7,16.5255387 C7,18.2355437 8.54042471,19.1762576 10.2702124,18.9725295 C12,18.7688013 13.4828262,17.1869937 13.4828262,15.2359047 L13.4828262,15.2359047 L13.4828262,10.624346 C13.4828262,8.13347847 14.2985238,8.50756904 15.8097153,7.52258605 C16.8171763,6.86593072 17.1850985,6.02506871 16.9134819,5 L16.9134819,5 Z" id="形状结合" style="mix-blend-mode: multiply;"></path>
            </g>
        </g>
    </g>
</svg>