<?xml version="1.0" encoding="UTF-8"?>
<svg width="40px" height="40px" viewBox="0 0 40 40" version="1.1" xmlns="http://www.w3.org/2000/svg" xmlns:xlink="http://www.w3.org/1999/xlink">
    <title>ic_music_songsheet</title>
    <g id="ic_music_songsheet" stroke="none" stroke-width="1" fill="none" fill-rule="evenodd">
        <g id="编组" transform="translate(6.750000, 9.000000)" fill="#FF1949">
            <path d="M21.25,0 C22.9068542,-3.04359188e-16 24.25,1.34314575 24.25,3 L24.25,11 C24.25,12.6568542 22.9068542,14 21.25,14 L20.002,14 L20.0021576,10.9085776 C20.0020114,10.83957 20.0018207,10.7732951 20.0016429,10.7096145 L20.0019355,10.2028042 C20.0127191,8.91947506 20.1483619,9.1095079 21.4158128,8.34240133 C22.4232738,7.73264996 22.791196,6.95184951 22.5195794,6 L22.5195794,6 L19.0058064,6.74245736 C18.5087445,6.84748616 18.1530766,7.28615947 18.1530766,7.79419655 L18.1530766,7.79419655 L18.1530766,12.9348658 C18.1530766,13.4940293 17.759907,13.8084616 17.3407499,14.0011868 L5.25,14 C3.59314575,14 2.25,12.6568542 2.25,11 L2.25,3 C2.25,1.34314575 3.59314575,3.04359188e-16 5.25,0 L21.25,0 Z M10.75,8 L5.75,8 C4.92157288,8 4.25,8.67157288 4.25,9.5 C4.25,10.3284271 4.92157288,11 5.75,11 L5.75,11 L10.75,11 C11.5784271,11 12.25,10.3284271 12.25,9.5 C12.25,8.67157288 11.5784271,8 10.75,8 L10.75,8 Z" id="形状结合" style="mix-blend-mode: multiply;" opacity="0.600000024"></path>
            <path d="M23.5,3 C25.1568542,3 26.5,4.34314575 26.5,6 L26.5,20.5 C26.5,22.1568542 25.1568542,23.5 23.5,23.5 L3,23.5 C1.34314575,23.5 2.02906125e-16,22.1568542 0,20.5 L0,6 C-2.02906125e-16,4.34314575 1.34314575,3 3,3 L23.5,3 Z M22.5195794,6 L19.0058064,6.74245736 C18.5087445,6.84748616 18.1530766,7.28615947 18.1530766,7.79419655 L18.1530766,7.79419655 L18.1530766,12.9348658 C18.1530766,13.8636911 17.0682251,14.1172427 16.5814558,14.2593869 C15.3661575,14.6142729 14.25,15.5597827 14.25,16.9369473 C14.25,18.314112 15.1678327,19.437514 17.0772083,19.253148 C18.986584,19.068782 20.0024056,17.7579967 20.0024056,15.4060984 L20.0024056,15.4060984 L20.0021576,10.9085776 C20.0020114,10.83957 20.0018207,10.7732951 20.0016429,10.7096145 L20.0019355,10.2028042 C20.0127191,8.91947506 20.1483619,9.1095079 21.4158128,8.34240133 C22.4232738,7.73264996 22.791196,6.95184951 22.5195794,6 L22.5195794,6 Z M8.75,15 L5.75,15 C4.92157288,15 4.25,15.6715729 4.25,16.5 C4.25,17.3284271 4.92157288,18 5.75,18 L5.75,18 L8.75,18 C9.57842712,18 10.25,17.3284271 10.25,16.5 C10.25,15.6715729 9.57842712,15 8.75,15 L8.75,15 Z M10.75,8 L5.75,8 C4.92157288,8 4.25,8.67157288 4.25,9.5 C4.25,10.3284271 4.92157288,11 5.75,11 L5.75,11 L10.75,11 C11.5784271,11 12.25,10.3284271 12.25,9.5 C12.25,8.67157288 11.5784271,8 10.75,8 L10.75,8 Z" id="形状结合" opacity="0.7"></path>
        </g>
    </g>
</svg>