<?xml version="1.0" encoding="UTF-8"?>
<svg width="40px" height="40px" viewBox="0 0 40 40" version="1.1" xmlns="http://www.w3.org/2000/svg" xmlns:xlink="http://www.w3.org/1999/xlink">
    <title>ic_music_musicfm</title>
    <defs>
        <path d="M15.0933833,12.0365066 C13.544412,13.0552122 13.0676409,12.6066723 13.0676409,15.1828191 C13.0676409,16.9002503 13.0779757,19.3975612 13.0986453,22.6747519 C13.0986453,24.8762932 11.4494926,26.324628 9.7209524,26.5395632 C7.99241217,26.7544984 6.36898473,25.7773454 6.36898473,24.0087953 C6.36898473,22.2402453 7.96385997,21.2524679 8.8250458,20.9291128 C9.32074246,20.7429903 11.1183194,20.1731955 11.1183194,19.3283302 L11.0900643,11.2862387 C11.0884636,10.8306393 11.4073139,10.4366668 11.853238,10.3432586 L16.224744,9.42755531 L16.224744,9.42755531 C16.5031511,10.4877191 16.1260308,11.3573695 15.0933833,12.0365066 Z" id="path-1"></path>
    </defs>
    <g id="ic_music_musicfm" stroke="none" stroke-width="1" fill="none" fill-rule="evenodd">
        <g id="编组-4" transform="translate(8.000000, 7.000000)">
            <g id="编组-2">
                <g id="编组" opacity="0.800000012" stroke="#FF1949" stroke-linecap="round" stroke-width="3">
                    <path d="M16.3779214,18.0903381 C18.2688539,16.7286814 19.5,14.5081155 19.5,12 C19.5,7.85786438 16.1421356,4.5 12,4.5 C7.85786438,4.5 4.5,7.85786438 4.5,12 C4.5,14.3538858 5.58438946,16.4544988 7.28086279,17.8295335" id="路径"></path>
                </g>
                <mask id="mask-2" fill="white">
                    <use xlink:href="#path-1"></use>
                </mask>
                <use id="Shape-Copy备份" fill="#FF1949" fill-rule="nonzero" opacity="0.800000012" transform="translate(11.341205, 17.998242) rotate(-10.000000) translate(-11.341205, -17.998242) " xlink:href="#path-1"></use>
            </g>
            <path d="M18.3450344,22 C21.7407096,19.8984344 24,16.1602054 24,11.8987434 C24,5.32724889 18.627417,0 12,0 C5.372583,0 0,5.32724889 0,11.8987434 C0,15.959724 2.05171325,19.5455449 5.18337719,21.6926432" id="路径" stroke="#FF1949" stroke-width="2.88" opacity="0.600000024" stroke-linecap="round"></path>
        </g>
    </g>
</svg>