<?xml version="1.0" encoding="UTF-8"?>
<svg width="40px" height="40px" viewBox="0 0 40 40" version="1.1" xmlns="http://www.w3.org/2000/svg" xmlns:xlink="http://www.w3.org/1999/xlink">
    <title>ic_music_privatefm</title>
    <g id="ic_music_privatefm" stroke="none" stroke-width="1" fill="none" fill-rule="evenodd">
        <g id="编组-2" transform="translate(6.000000, 5.754551)" fill="#FF1949">
            <path d="M25,5.24544919 C26.6568542,5.24544919 28,6.58859495 28,8.24544919 L28,22.2454492 C28,23.9023034 26.6568542,25.2454492 25,25.2454492 L3,25.2454492 C1.34314575,25.2454492 2.02906125e-16,23.9023034 0,22.2454492 L0,8.24544919 C-2.02906125e-16,6.58859495 1.34314575,5.24544919 3,5.24544919 L25,5.24544919 Z M12.5033128,16.7477023 L4.50331276,16.7477023 C3.67488564,16.7477023 3.00331276,17.4192752 3.00331276,18.2477023 C3.00331276,19.0273984 3.59820084,19.668151 4.35885275,19.7408357 L4.50331276,19.7477023 L12.5033128,19.7477023 C13.3317399,19.7477023 14.0033128,19.0761294 14.0033128,18.2477023 C14.0033128,17.4192752 13.3317399,16.7477023 12.5033128,16.7477023 Z M18.6011495,11.7455689 C17.1459843,11.7590192 15.9623849,12.9702763 16.0009148,14.4034774 C16.0100258,14.7396565 16.082161,15.0659559 16.2133987,15.3651101 C16.4486841,15.9001047 17.0854796,16.8044198 17.9496865,17.6099917 C17.9670857,17.6262097 17.9845469,17.6424613 18.0020781,17.6587542 C18.4765656,18.0997286 18.9841305,18.5544377 19.4915935,18.9977201 C19.6691362,19.1528083 19.8340384,19.2954381 19.982121,19.4224295 C20.0340386,19.4669525 20.0801766,19.5063668 20.1200119,19.5402742 C20.1440625,19.5607458 20.1607608,19.5749111 20.1695835,19.5823716 L20.1695835,19.5823716 L20.2477992,19.6485112 C20.4002114,19.7773917 20.6241345,19.7778048 20.7770276,19.6494875 L20.7770276,19.6494875 L20.8555013,19.5836277 C20.8626917,19.577593 20.8762728,19.5661627 20.8958199,19.5496618 C20.9281778,19.5223465 20.9656502,19.4906125 21.0078127,19.4547844 C21.1280532,19.3526085 21.2619436,19.2379682 21.4060948,19.1134555 C21.8181445,18.7575417 22.230289,18.3934668 22.6156521,18.0417185 C22.7024244,17.9625152 22.7870129,17.8846782 22.8692311,17.8083481 C22.9505206,17.7328803 23.0293511,17.6590172 23.1055673,17.586875 C23.9145243,16.8211946 24.5355188,15.9146447 24.7802595,15.3654657 C24.972828,14.9331766 25.0420979,14.4557853 24.9750965,13.9722583 C24.8147244,12.8142461 23.8594031,11.8950638 22.6795427,11.7625488 C21.8669703,11.6713677 21.0585077,11.9840617 20.504856,12.5257871 C20.0154675,12.031254 19.3346768,11.738659 18.6011495,11.7455689 Z M8.50331276,11.7477023 L4.50331276,11.7477023 C3.67488564,11.7477023 3.00331276,12.4192752 3.00331276,13.2477023 C3.00331276,14.0273984 3.59820084,14.668151 4.35885275,14.7408357 L4.50331276,14.7477023 L8.50331276,14.7477023 C9.33173989,14.7477023 10.0033128,14.0761294 10.0033128,13.2477023 C10.0033128,12.4192752 9.33173989,11.7477023 8.50331276,11.7477023 Z" id="形状结合" style="mix-blend-mode: multiply;" opacity="0.800000012"></path>
            <path d="M2.43026141,3.12421133 L15.4302614,3.12421133 C16.2586885,3.12421133 16.9302614,3.79578421 16.9302614,4.62421133 C16.9302614,5.45263846 16.2586885,6.12421133 15.4302614,6.12421133 L2.43026141,6.12421133 C1.60183428,6.12421133 0.930261406,5.45263846 0.930261406,4.62421133 C0.930261406,3.79578421 1.60183428,3.12421133 2.43026141,3.12421133 Z" id="矩形" style="mix-blend-mode: multiply;" opacity="0.600000024" transform="translate(8.930261, 4.624211) rotate(-24.000000) translate(-8.930261, -4.624211) "></path>
        </g>
    </g>
</svg>