<?xml version="1.0" encoding="UTF-8"?>
<svg width="40px" height="40px" viewBox="0 0 40 40" version="1.1" xmlns="http://www.w3.org/2000/svg" xmlns:xlink="http://www.w3.org/1999/xlink">
    <title>ic_music_hires</title>
    <g id="ic_music_hires" stroke="none" stroke-width="1" fill="none" fill-rule="evenodd">
        <g id="编组-2" transform="translate(6.560000, 6.560000)" fill="#FF1949">
            <path d="M16,5.68434189e-14 L18.88,5.68434189e-14 L18.88,13.44 L18.88,13.44 C18.88,16.444429 16.444429,18.88 13.44,18.88 C10.435571,18.88 8,16.444429 8,13.44 C8,10.435571 10.435571,8 13.44,8 C13.7818507,8 14.1163367,8.03153187 14.4407082,8.09184581 L14.4409965,11.0830982 C14.1335141,10.9523427 13.7952053,10.88 13.44,10.88 C12.026151,10.88 10.88,12.026151 10.88,13.44 C10.88,14.853849 12.026151,16 13.44,16 C14.797295,16 15.9078796,14.9437072 15.9945547,13.6083207 L16,13.44 L16,5.68434189e-14 Z" id="形状结合" style="mix-blend-mode: multiply;" opacity="0.800000012"></path>
            <path d="M20,5.68434189e-14 L22.88,5.68434189e-14 L22.879,13.439 L22.88,13.44 C22.88,18.653568 18.653568,22.88 13.44,22.88 C8.22643196,22.88 4,18.653568 4,13.44 C4,8.22643196 8.22643196,4 13.44,4 C13.778024,4 14.1118985,4.01776638 14.4407406,4.05241629 L14.4404019,6.95579675 C14.1142225,6.90588647 13.7801343,6.88 13.44,6.88 C9.81701204,6.88 6.88,9.81701204 6.88,13.44 C6.88,17.062988 9.81701204,20 13.44,20 C16.9842274,20 19.8719796,17.1892961 19.9958591,13.6752861 L20,13.4394994 L20,13.4394994 L20,5.68434189e-14 Z" id="形状结合" style="mix-blend-mode: multiply;" opacity="0.800000012"></path>
            <path d="M24,5.59552404e-14 L26.88,5.59552404e-14 L26.88,13.439 C26.88,20.7581619 21.0310146,26.71022 13.7527862,26.8764319 L13.44,26.88 C6.01729296,26.88 -4.79616347e-14,20.862707 -4.79616347e-14,13.44 C-4.79616347e-14,6.01729296 6.01729296,0 13.44,0 C13.7764516,0 14.1100156,0.0123629353 14.4402626,0.0366593105 L14.4402995,2.92675835 C14.1110289,2.89581991 13.7773619,2.88 13.44,2.88 C7.60787304,2.88 2.88,7.60787304 2.88,13.44 C2.88,19.272127 7.60787304,24 13.44,24 C19.272127,24 24,19.272127 24,13.44 L24,5.59552404e-14 Z" id="形状结合" style="mix-blend-mode: multiply;" opacity="0.600000024"></path>
        </g>
    </g>
</svg>