<?xml version="1.0" encoding="UTF-8"?>
<svg width="40px" height="40px" viewBox="0 0 40 40" version="1.1" xmlns="http://www.w3.org/2000/svg" xmlns:xlink="http://www.w3.org/1999/xlink">
    <title>ic_music_children</title>
    <g id="ic_music_children" stroke="none" stroke-width="1" fill="none" fill-rule="evenodd">
        <g id="编组-2" transform="translate(5.570000, 8.037269)" fill="#FF1949" fill-rule="nonzero">
            <path d="M0.439117758,16.9022925 C1.02478152,16.3163834 1.97452897,16.3161846 2.56043806,16.9018483 C3.99019691,18.3310086 5.665974,19.4937632 7.5064342,20.3283028 C9.66321828,21.3062766 12.0113808,21.818866 14.4347089,21.818866 C16.8938081,21.818866 19.2753736,21.29101 21.45772,20.2849888 C23.2581422,19.4550275 24.8985043,18.3100976 26.3020185,16.9088026 C26.8882683,16.3234798 27.8380154,16.3242313 28.4233382,16.9104811 C29.0086609,17.4967308 29.0079095,18.446478 28.4216597,19.0318007 C26.768709,20.6821378 24.8361741,22.0309966 22.7136434,23.009444 C20.1394617,24.1960941 17.3296572,24.818866 14.4347089,24.818866 C11.5819208,24.818866 8.81159026,24.2141199 6.26752739,23.0605381 C4.09772626,22.0766619 2.12343311,20.7067789 0.439561945,19.0236128 C-0.146347139,18.4379491 -0.146546008,17.4882016 0.439117758,16.9022925 Z" id="Oval" style="mix-blend-mode: multiply;" opacity="0.600000024"></path>
            <path d="M10.5228324,1.43149677 C11.2211953,2.04265364 11.7924142,2.74795261 12.2897226,3.5657242 C12.517719,3.94064039 12.7200526,4.31971716 12.9334847,4.76180161 L13.1360738,5.19427145 C13.2512004,5.44779295 13.5773288,6.16286748 13.671414,6.35217718 C13.8486138,6.70872247 13.9899963,6.93142794 14.1110922,7.0543061 C15.3551623,8.31668674 16.5604638,8.56543283 19.7209355,7.29669378 C23.0053376,5.97820411 25.7399001,6.89425483 27.612779,9.93408995 C27.8917485,10.3868801 27.750839,10.9800885 27.2980488,11.259058 C26.8452586,11.5380274 26.2520503,11.3971179 25.9730808,10.9443277 C25.3051323,9.86019296 24.5537236,9.16361002 23.6837298,8.84210384 C24.5056324,11.5276681 25.0734465,14.4980266 25.3888591,17.7528686 C24.2035975,18.7763665 22.8806471,19.6290457 21.4577199,20.2849888 C21.224412,20.3925394 20.9888272,20.494625 20.7511142,20.5911849 C19.6387807,18.1706189 17.2878164,16.6529216 14.4806621,16.6529216 C11.7450501,16.6529216 9.30930808,18.2227876 8.14128298,20.5982614 C7.92814081,20.5142897 7.71638076,20.4235012 7.50643412,20.3283028 C6.01244671,19.650868 4.62697437,18.7571617 3.39352215,17.6802448 C5.92726412,14.3741849 7.60050677,11.5253592 7.60050677,10.2503005 C7.60050677,9.56319803 7.50643412,8.7858455 5.9742164,9.40365693 C3.48582107,10.615442 1.90399552,9.32902357 1.73935355,8.19166483 C1.57471159,7.0543061 1.80041006,5.28054789 2.88864296,3.5657242 C3.05887316,3.29747759 3.29604867,2.86917293 3.53202559,2.30381163 L3.37163887,2.34386759 C2.85680508,2.47724323 2.33132751,2.1680103 2.19795187,1.65317651 C2.06457624,1.13834272 2.37380917,0.61286515 2.88864296,0.479489514 C6.20594008,-0.379907484 8.77652125,-0.0967486734 10.5228324,1.43149677 Z" id="形状结合" style="mix-blend-mode: multiply;" opacity="0.800000012"></path>
        </g>
    </g>
</svg>