<?xml version="1.0" encoding="UTF-8"?>
<svg width="40px" height="40px" viewBox="0 0 40 40" version="1.1" xmlns="http://www.w3.org/2000/svg" xmlns:xlink="http://www.w3.org/1999/xlink">
    <title>ic_music_Album</title>
    <g id="ic_music_Album" stroke="none" stroke-width="1" fill="none" fill-rule="evenodd" opacity="0.800000012">
        <g id="编组" transform="translate(7.000000, 7.000000)" fill="#FF1949" fill-rule="nonzero">
            <path d="M13,0 C20.1797017,0 26,5.82029825 26,13 C26,20.1797017 20.1797017,26 13,26 C5.82029825,26 0,20.1797017 0,13 C0,5.82029825 5.82029825,0 13,0 Z M13,9 C10.790861,9 9,10.790861 9,13 C9,15.209139 10.790861,17 13,17 C15.209139,17 17,15.209139 17,13 C17,10.790861 15.209139,9 13,9 Z M11.2449136,4.36750476 C11.0742588,3.84224732 10.5101104,3.55478508 9.98485298,3.7254399 C7.24849215,4.61447659 5.03479736,6.682989 3.95761733,9.34719121 C3.7506002,9.85920914 3.9978522,10.4421022 4.50987013,10.6491193 C5.02188805,10.8561365 5.60478113,10.6088845 5.81179825,10.0968665 C6.66775465,7.97981939 8.42939342,6.33371547 10.6028487,5.62756536 C11.1281062,5.45691055 11.4155684,4.8927622 11.2449136,4.36750476 Z" id="形状结合" style="mix-blend-mode: multiply;"></path>
        </g>
    </g>
</svg>