<?xml version="1.0" encoding="UTF-8"?>
<svg width="24px" height="24px" viewBox="0 0 24 24" version="1.1" xmlns="http://www.w3.org/2000/svg" xmlns:xlink="http://www.w3.org/1999/xlink">
    <title>ic_播放</title>
    <g id="ic_播放" stroke="none" stroke-width="1" fill="none" fill-rule="evenodd">
        <rect id="矩形" x="0" y="0" width="24" height="24"></rect>
        <g id="编组-7" transform="translate(2.000000, 2.000000)">
            <rect id="矩形" x="0" y="0" width="20" height="20"></rect>
            <path d="M15.5555556,3.05555556 C16.1666667,3.05555556 16.6666667,3.46316425 16.6666667,3.96135266 L16.6666667,16.0386473 C16.6666667,16.5036232 16.2311111,16.889694 15.6761811,16.9391036 L15.5555556,16.9444444 C14.9444444,16.9444444 14.4444444,16.5368357 14.4444444,16.0386473 L14.445065,10.7330231 C14.3890933,10.7963817 14.3260866,10.853097 14.2574074,10.901872 L14.2574074,10.901872 L14.2589506,10.9024758 L5.31080247,16.7373188 C5.1345679,16.866244 4.92037037,16.9444444 4.68641975,16.9444444 C4.09197531,16.9444444 3.61111111,16.4535024 3.61111111,15.848128 L3.61111111,15.848128 L3.61111111,4.15157005 C3.61111111,3.54649758 4.09197531,3.05555556 4.68641975,3.05555556 C4.92345679,3.05555556 5.09783951,3.13707729 5.31666667,3.26177536 L5.31666667,3.26177536 L14.2589506,9.09722222 C14.2580247,9.09812802 14.2574074,9.09903382 14.2574074,9.09903382 C14.3260991,9.14781764 14.3891163,9.20448997 14.4450956,9.26777994 L14.4444444,3.96135266 C14.4444444,3.46316425 14.9444444,3.05555556 15.5555556,3.05555556 Z" id="形状结合" fill="#FF1949"></path>
        </g>
    </g>
</svg>