<?xml version="1.0" encoding="UTF-8"?>
<svg width="20px" height="20px" viewBox="0 0 20 20" version="1.1" xmlns="http://www.w3.org/2000/svg" xmlns:xlink="http://www.w3.org/1999/xlink">
    <title>ic/ic_播放列表</title>
    <g id="ic/ic_播放列表" stroke="none" stroke-width="1" fill="none" fill-rule="evenodd">
        <g id="ic/ic_24dp-more-copy-4" fill="#FF1949">
            <rect id="矩形备份" x="1.66666667" y="7.5" width="10.4166667" height="2.08333333" rx="1.04166667"></rect>
            <rect id="矩形备份-2" x="1.66666667" y="2.08333333" width="10.4166667" height="2.08333333" rx="1.04166667"></rect>
            <rect id="矩形备份-3" x="1.66666667" y="12.9166667" width="7.29166667" height="2.08333333" rx="1.04166667"></rect>
            <path d="M16.004,7.99133333 L16.0070885,7.99205047 L16.008837,15.2861636 C15.8861623,16.7019897 14.8440678,17.7858228 13.557115,18.0411984 C12.1863097,18.3132132 10.625,17.5685768 10.625,15.9885784 C10.625,14.4085801 12.0201082,13.7344466 12.7734257,13.4455656 C13.2070336,13.2792864 14.3404167,12.7806676 14.3404167,12.0258765 L14.344,10.4163333 L14.3411667,10.4163333 L14.347,9.12133333 L14.35,7.99193308 L14.353,7.99133333 L14.3683011,4.77656628 C14.372224,3.98480528 14.93265,3.30508781 15.7091454,3.15031158 L17.926502,2.70833333 C18.011212,3.70901835 17.7876947,4.3458535 17.2559501,4.6188388 C16.4583333,5.02831674 16.014982,4.22484292 16.0073461,6.33563106 C16.0064608,6.58036012 16.0057295,6.85646281 16.0051521,7.16393913 L16.0044015,7.64868383 L16.004,7.99133333 Z" id="形状结合" fill-rule="nonzero"></path>
        </g>
    </g>
</svg>