<?xml version="1.0" encoding="UTF-8"?>
<svg width="24px" height="24px" viewBox="0 0 24 24" version="1.1" xmlns="http://www.w3.org/2000/svg" xmlns:xlink="http://www.w3.org/1999/xlink">
    <title>ic_fadio_h</title>
    <g id="ic_fadio_h" stroke="none" stroke-width="1" fill="none" fill-rule="evenodd">
        <g id="编组" transform="translate(2.000000, 1.000000)">
            <path d="M10,0 C15.5228475,0 20,4.44826765 20,9.93548387 C20,12.9047732 18.6889998,15.5698375 16.6107251,17.3904588 C15.7298126,18.1621606 14.7110488,18.7821468 13.5958406,19.2092781 L14.234054,20.4779911 C14.4947373,20.9959941 14.2861385,21.627244 13.7681355,21.8879273 C13.6217049,21.9616181 13.4600543,22 13.2961267,22 L6.70387333,22 C6.12397434,22 5.65387333,21.529899 5.65387333,20.95 C5.65387333,20.7860724 5.69225526,20.6244218 5.76594602,20.4779911 L6.4029962,19.2088325 C5.28746748,18.7814186 4.26846478,18.1610301 3.38743787,17.3888492 C1.31022772,15.5682668 0,12.9038982 0,9.93548387 C0,4.44826765 4.4771525,0 10,0 Z" id="形状结合" fill="#FF1949" opacity="0.2"></path>
            <path d="M10.4720089,13.46235 C10.673284,13.5636411 10.8366362,13.7269933 10.9379273,13.9282684 L14.234054,20.4779911 C14.4947373,20.9959941 14.2861385,21.627244 13.7681355,21.8879273 C13.6217049,21.9616181 13.4600543,22 13.2961267,22 L6.70387333,22 C6.12397434,22 5.65387333,21.529899 5.65387333,20.95 C5.65387333,20.7860724 5.69225526,20.6244218 5.76594602,20.4779911 L9.0620727,13.9282684 C9.322756,13.4102655 9.95400592,13.2016667 10.4720089,13.46235 Z" id="路径" fill="#FF1949" fill-rule="nonzero"></path>
            <path d="M12.3844964,11.4998847 C12.6832082,11.0513404 12.8571429,10.5135934 12.8571429,9.93548387 C12.8571429,8.36770781 11.5779564,7.09677419 10,7.09677419 C8.42204357,7.09677419 7.14285714,8.36770781 7.14285714,9.93548387 C7.14285714,10.5131675 7.31653556,11.050548 7.61484356,11.4988931" id="路径" stroke="#FF1949" stroke-width="1.68" stroke-linecap="round"></path>
            <path d="M14.2497519,14.7279678 C15.5857856,13.5575683 16.4285714,11.8443127 16.4285714,9.93548387 C16.4285714,6.40798773 13.550402,3.5483871 10,3.5483871 C6.44959804,3.5483871 3.57142857,6.40798773 3.57142857,9.93548387 C3.57142857,11.8437502 4.41371782,13.5565586 5.7490672,14.726933" id="路径" stroke="#FF1949" stroke-width="1.68" stroke-linecap="round"></path>
        </g>
    </g>
</svg>