<?xml version="1.0" encoding="UTF-8"?>
<svg width="24px" height="24px" viewBox="0 0 24 24" version="1.1" xmlns="http://www.w3.org/2000/svg" xmlns:xlink="http://www.w3.org/1999/xlink">
    <title>ic_search</title>
    <g id="ic_search" stroke="none" stroke-width="1" fill="none" fill-rule="evenodd">
        <path d="M17.3425658,15.8762916 L20.7523185,19.2841573 C21.0452117,19.5770505 21.0452117,20.0519243 20.7523185,20.3448175 C20.4594252,20.6377107 19.9845515,20.6377107 19.6916583,20.3448175 L16.3217924,16.9732602 C16.6951204,16.6404134 17.0370443,16.2730911 17.3425658,15.8762916 Z M10.8104679,3.2931709 C14.9526035,3.2931709 18.3104679,6.65103527 18.3104679,10.7931709 C18.3104679,14.9353065 14.9526035,18.2931709 10.8104679,18.2931709 C6.66833223,18.2931709 3.31046786,14.9353065 3.31046786,10.7931709 C3.31046786,6.65103527 6.66833223,3.2931709 10.8104679,3.2931709 Z M10.8104679,4.7931709 C7.49675936,4.7931709 4.81046786,7.4794624 4.81046786,10.7931709 C4.81046786,14.1068794 7.49675936,16.7931709 10.8104679,16.7931709 C14.1241764,16.7931709 16.8104679,14.1068794 16.8104679,10.7931709 C16.8104679,7.4794624 14.1241764,4.7931709 10.8104679,4.7931709 Z" id="形状结合" fill="#000000"></path>
    </g>
</svg>