<?xml version="1.0" encoding="UTF-8"?>
<svg width="24px" height="24px" viewBox="0 0 24 24" version="1.1" xmlns="http://www.w3.org/2000/svg" xmlns:xlink="http://www.w3.org/1999/xlink">
    <title>播放按钮/play</title>
    <g id="播放按钮/play" stroke="none" stroke-width="1" fill="none" fill-rule="evenodd">
        <path d="M4.39101611,4.9446 C9.46478503,0.0731825138 14.413188,-0.616060548 17.7772556,0.408671527 C21.1413231,1.4334036 24.5607141,7.85068795 23.9226054,15.1205372 C23.2844967,22.3903864 19.2994695,24.6544807 12.4456145,23.8438972 C5.59175945,23.0333136 1.37098517,18.9770329 0.505292576,16.4534536 C-0.360400022,13.9298743 -0.682752799,9.81601748 4.39101611,4.9446 Z M8.76762883,8.46337525 C8.59229821,8.76728165 8.5,9.11196417 8.5,9.46282016 L8.5,14.8448722 C8.5,15.9494417 9.3954305,16.8448722 10.5,16.8448722 C10.850856,16.8448722 11.1955385,16.7525739 11.4994449,16.5772433 L16.16389,13.8862173 C17.1206521,13.3342391 17.4487944,12.1111634 16.8968162,11.1544012 C16.7211598,10.8499301 16.4683611,10.5971314 16.16389,10.421475 L11.4994449,7.73044898 C10.5426827,7.1784708 9.31960701,7.50661307 8.76762883,8.46337525 Z" id="形状结合" fill="#FFFFFF"></path>
    </g>
</svg>