<?xml version="1.0" encoding="UTF-8"?>
<svg width="24px" height="24px" viewBox="0 0 24 24" version="1.1" xmlns="http://www.w3.org/2000/svg" xmlns:xlink="http://www.w3.org/1999/xlink">
    <title>ic_set</title>
    <defs>
        <path d="M13.9001599,1.2211838 C14.3655481,1.2211838 14.7799283,1.51608816 14.9328057,1.95609286 L15.6850109,4.2265895 L17.0585372,5.05994286 L19.4843581,4.66310838 C19.9142048,4.61024173 20.3347094,4.81633643 20.5565998,5.18862787 L22.2294543,8.17649218 C22.464492,8.57084224 22.428603,9.07012963 22.1395864,9.4267345 L20.5565998,11.0755931 L20.5565998,12.9893234 L22.1395864,14.4763891 C22.4447793,14.8289573 22.4931549,15.3364253 22.2600822,15.7404084 L20.510337,18.8301272 C20.2893682,19.2131308 19.8598212,19.425351 19.4217143,19.3679677 L17.0585372,18.9586255 L15.6850109,19.7716284 L14.9315363,21.9988181 C14.7848096,22.4491582 14.3653117,22.7538941 13.8921024,22.7538941 L10.1289572,22.7538941 C9.65574794,22.7538941 9.23625009,22.4491582 9.08952335,21.9988181 L8.33281612,19.7716284 L6.96252248,18.9586255 L4.57804054,19.3679677 C4.13993363,19.425351 3.71038667,19.2131308 3.48941784,18.8301272 L1.73991776,15.7371271 C1.50684506,15.3331439 1.55522074,14.825676 1.86041364,14.4731078 L3.48941784,12.9893234 L3.48941784,11.0755931 L1.86041364,9.4267345 C1.571397,9.07012963 1.535508,8.57084224 1.77054567,8.17649218 L3.44979938,5.18862787 C3.67168982,4.81633643 4.09219437,4.61024173 4.5220411,4.66310838 L6.96252248,5.05994286 L8.33281612,4.2265895 L9.08826039,1.95621895 C9.24110027,1.51614927 9.65551281,1.2211838 10.12095,1.2211838 L13.9001599,1.2211838 Z M13.6062476,2.7211838 L10.4145835,2.7211838 L9.58236813,5.22227783 L7.26859752,6.62941311 L4.60420762,6.19616998 L3.21658233,8.66514536 L4.98941784,10.4595882 L4.98941784,13.6520137 L3.20379942,15.2784507 L4.64914569,17.8338188 L7.25298721,17.3868194 L9.57480282,18.7643656 L9.75307963,19.2890814 L10.4205327,21.2538941 L13.6000355,21.2538941 L14.4423521,18.7640969 L16.7700411,17.3863164 L19.3509805,17.8333786 L20.799533,15.2755897 L19.0565998,13.6382693 L19.0565998,10.472105 L20.7866792,8.67003272 L19.4018177,6.19654916 L16.7540389,6.62969323 L14.4347923,5.22254731 L14.2611178,4.69831878 L13.6062476,2.7211838 Z M12,8 C14.1999724,8 15.9834025,9.78528199 15.9834025,11.9875389 C15.9834025,14.1897959 14.1999724,15.9750779 12,15.9750779 C9.80002755,15.9750779 8.01659751,14.1897959 8.01659751,11.9875389 C8.01659751,9.78528199 9.80002755,8 12,8 Z M12,9.5 C10.6288034,9.5 9.51659751,10.6133608 9.51659751,11.9875389 C9.51659751,13.3617171 10.6288034,14.4750779 12,14.4750779 C13.3711966,14.4750779 14.4834025,13.3617171 14.4834025,11.9875389 C14.4834025,10.6133608 13.3711966,9.5 12,9.5 Z" id="path-1"></path>
    </defs>
    <g id="ic_set" stroke="none" stroke-width="1" fill="none" fill-rule="evenodd">
        <mask id="mask-2" fill="white">
            <use xlink:href="#path-1"></use>
        </mask>
        <use id="合并形状" fill="#182431" fill-rule="nonzero" xlink:href="#path-1"></use>
    </g>
</svg>