<?xml version="1.0" encoding="UTF-8"?>
<svg width="48px" height="48px" viewBox="0 0 48 48" version="1.1" xmlns="http://www.w3.org/2000/svg" xmlns:xlink="http://www.w3.org/1999/xlink">
    <title>pic_image</title>
    <defs>
        <path d="M33.7444592,4 C37.3105342,4 38.6036791,4.37130244 39.9073828,5.06853082 C41.2110865,5.76575919 42.2342408,6.78891348 42.9314692,8.09261719 C43.6286976,9.39632089 44,10.6894658 44,14.2555408 L44,33.7444592 C44,37.3105342 43.6286976,38.6036791 42.9314692,39.9073828 C42.2342408,41.2110865 41.2110865,42.2342408 39.9073828,42.9314692 C38.6036791,43.6286976 37.3105342,44 33.7444592,44 L14.2555408,44 C10.6894658,44 9.39632089,43.6286976 8.09261719,42.9314692 C6.78891348,42.2342408 5.76575919,41.2110865 5.06853082,39.9073828 C4.37130244,38.6036791 4,37.3105342 4,33.7444592 L4,14.2555408 C4,10.6894658 4.37130244,9.39632089 5.06853082,8.09261719 C5.76575919,6.78891348 6.78891348,5.76575919 8.09261719,5.06853082 C9.39632089,4.37130244 10.6894658,4 14.2555408,4 L33.7444592,4 Z M16.5,14.5 C14.5670034,14.5 13,16.0670034 13,18 C13,19.9329966 14.5670034,21.5 16.5,21.5 C18.4329966,21.5 20,19.9329966 20,18 C20,16.0670034 18.4329966,14.5 16.5,14.5 Z M35.1727294,23.6608161 C35.8557713,23.8678436 36.4279111,24.1788133 37.6013731,25.3348297 L40.7066957,28.4396382 C40.8942433,28.6271548 40.9996208,28.8814929 40.9996474,29.1467034 L41,32.6673731 L41,32.6673731 C41,35.564809 40.6983168,36.6154893 40.1318187,37.6747485 C39.5653207,38.7340078 38.7340078,39.5653207 37.6747485,40.1318187 L37.5156921,40.2148027 C36.5058044,40.7277309 35.4199372,41 32.6673731,41 L15.3326269,41 L14.9116303,40.997742 C12.3301015,40.9691696 11.3315478,40.6699919 10.3252515,40.1318187 C9.2659922,39.5653207 8.43467934,38.7340078 7.86818129,37.6747485 C7.79409138,37.5362125 7.70355079,37.3414882 7.59655952,37.0905757 C7.51594241,36.9042878 7.55760324,36.6880675 7.69977243,36.5431915 L13.3741188,30.8688102 L13.3741188,30.8688102 C14.6349167,29.6080123 15.2233877,29.2820917 15.930824,29.0676703 C16.6382603,28.8532489 17.3617397,28.8532489 18.069176,29.0676703 L18.2141042,29.1138944 L18.3571948,29.1649209 C18.9279583,29.3807922 19.4919951,29.7508128 20.4978197,30.7416839 L20.7264486,30.9702005 C21.8986551,32.140696 23.7977121,32.1404839 24.9696571,30.9697267 L30.4776722,25.4619559 C31.7384701,24.201158 32.3269411,23.8752375 33.0343774,23.6608161 C33.7418137,23.4463946 34.4652931,23.4463946 35.1727294,23.6608161 Z" id="path-1"></path>
    </defs>
    <g id="pic_image" stroke="none" stroke-width="1" fill="none" fill-rule="evenodd">
        <mask id="mask-2" fill="white">
            <use xlink:href="#path-1"></use>
        </mask>
        <use id="蒙版" fill-opacity="0.2" fill="#182431" xlink:href="#path-1"></use>
    </g>
</svg>