<svg id="图层_1" data-name="图层 1" xmlns="http://www.w3.org/2000/svg" viewBox="0 0 24 24"><title>删除</title><path d="M12.125,1.875a3.25,3.25,0,0,1,3.24911,3.17329L15.375,5.125h5.75a.75.75,0,0,1,.04407,1.49873L21.125,6.625h-6.5a.75.75,0,0,1-.74873-.70593L13.875,5.875v-.75a1.75,1.75,0,0,0-3.499-.06016l-.001.06016v.75a.75.75,0,0,1-.70593.74873L9.625,6.625H2.875a.75.75,0,0,1-.04407-1.49873L2.875,5.125h6A3.25,3.25,0,0,1,12.125,1.875Zm1.75,10a.75.75,0,0,1,.75.75v6a.75.75,0,0,1-1.5,0v-6A.75.75,0,0,1,13.875,11.875Zm-3.5,0a.75.75,0,0,1,.75.75v6a.75.75,0,0,1-1.5,0v-6A.75.75,0,0,1,10.375,11.875ZM5.754,7.625,6.85113,18.59888A2.25,2.25,0,0,0,9.02349,20.624l.06647.001h6.06927a2.25,2.25,0,0,0,2.23134-1.96071l.00756-.06607.91929-9.22048L18.494,7.625h1.508l-.19209,1.90263-.91918,9.2194a3.75,3.75,0,0,1-3.64911,3.37708l-.08239.00089H9.09a3.75,3.75,0,0,1-3.7223-3.295l-.00909-.08187L4.246,7.625Z"/></svg>