<?xml version="1.0" encoding="UTF-8"?>
<svg width="48px" height="48px" viewBox="0 0 48 48" version="1.1" xmlns="http://www.w3.org/2000/svg" xmlns:xlink="http://www.w3.org/1999/xlink">
    <title>add</title>
    <g id="页面-1" stroke="none" stroke-width="1" fill="none" fill-rule="evenodd">
        <g id="首页" transform="translate(-288.000000, -873.000000)">
            <g id="add" transform="translate(288.000000, 873.000000)">
                <circle id="Oval-5" fill="#D94838" cx="24" cy="24" r="24"></circle>
                <g id="编组" transform="translate(12.000000, 12.000000)" fill="#FFFFFF" fill-rule="nonzero">
                    <g id="编组" transform="translate(1.285714, 1.285714)">
                        <path d="M10.7142857,0 C11.4243661,9.16049529e-17 12,0.575633893 12,1.28571429 L12,20.1428571 C12,20.8529375 11.4243661,21.4285714 10.7142857,21.4285714 C10.0042053,21.4285714 9.42857143,20.8529375 9.42857143,20.1428571 L9.42857143,1.28571429 C9.42857143,0.575633893 10.0042053,-5.35694163e-16 10.7142857,0 Z" id="Rectangle"></path>
                        <path d="M11.902,9.42857143 L11.902,11.9995714 L1.28571429,12 C0.575633893,12 1.77635684e-14,11.4243661 1.77635684e-14,10.7142857 C1.77635684e-14,10.0042053 0.575633893,9.42857143 1.28571429,9.42857143 L11.902,9.42857143 Z M20.1428571,9.42857143 C20.8529375,9.42857143 21.4285714,10.0042053 21.4285714,10.7142857 C21.4285714,11.4243661 20.8529375,12 20.1428571,12 L13.701,11.9995714 L13.701,9.42857143 L20.1428571,9.42857143 Z" id="形状结合"></path>
                    </g>
                </g>
            </g>
        </g>
    </g>
</svg>