<?xml version="1.0" encoding="UTF-8"?>
<svg width="40px" height="40px" viewBox="0 0 40 40" version="1.1" xmlns="http://www.w3.org/2000/svg" xmlns:xlink="http://www.w3.org/1999/xlink">
    <title>discover_vip</title>
    <defs>
        <rect id="path-1" x="0" y="0" width="40" height="40" rx="20"></rect>
    </defs>
    <g id="页面-1" stroke="none" stroke-width="1" fill="none" fill-rule="evenodd">
        <g id="发现" transform="translate(-36.000000, -150.000000)">
            <g id="编组-6备份" transform="translate(12.000000, 136.000000)">
                <g id="discover_vip" transform="translate(24.000000, 14.000000)">
                    <g id="uxs-a-link" fill="#8A2BE2">
                        <rect id="uxs-a" x="0" y="0" width="40" height="40" rx="20"></rect>
                    </g>
                    <g id="Clipped">
                        <mask id="mask-2" fill="white">
                            <use xlink:href="#path-1"></use>
                        </mask>
                        <g id="uxs-a"></g>
                        <g id="编组" mask="url(#mask-2)">
                            <g transform="translate(11.944444, 8.987222)">
                                <path d="M7.98611111,6.01289356 C12.3967185,6.01289356 15.9722222,9.58839728 15.9722222,13.9990047 C15.9722222,18.4096121 12.3967185,21.9851158 7.98611111,21.9851158 C3.57550372,21.9851158 0,18.4096121 0,13.9990047 C0,9.58839728 3.57550372,6.01289356 7.98611111,6.01289356 Z M8.28605853,10.6115821 C8.02811392,10.4842788 7.71580881,10.5901846 7.58850553,10.8481292 L7.58850553,10.8481292 L6.89159425,12.2602257 C6.85366142,12.3370859 6.78033706,12.3903592 6.69551669,12.4026843 L6.69551669,12.4026843 L5.13717572,12.6291246 C5.02382308,12.6455956 4.91906142,12.6989744 4.83910903,12.7809971 C4.63832714,12.9869781 4.64254189,13.3167246 4.84852292,13.5175065 L4.84852292,13.5175065 L5.97614906,14.6166703 C6.03752564,14.6764977 6.06553306,14.7626957 6.051044,14.8471733 L6.051044,14.8471733 L5.78484758,16.3992175 C5.76548464,16.5121121 5.78387769,16.6282413 5.83717931,16.729627 C5.97103389,16.9842336 6.28594386,17.0821224 6.54055042,16.9482678 L6.54055042,16.9482678 L7.93437297,16.2154919 C8.01023861,16.175607 8.1008725,16.175607 8.17673814,16.2154919 L8.17673814,16.2154919 L9.57056069,16.9482678 C9.67194636,17.0015694 9.78807556,17.0199624 9.90097017,17.0005995 C10.1844787,16.951974 10.3748891,16.6827261 10.3262635,16.3992175 L10.3262635,16.3992175 L10.0600671,14.8471733 C10.0455781,14.7626957 10.0735855,14.6764977 10.1349621,14.6166703 L10.1349621,14.6166703 L11.2625882,13.5175065 C11.3446109,13.4375541 11.3979897,13.3327924 11.4144608,13.2194398 C11.4558241,12.934781 11.2585942,12.6704879 10.9739354,12.6291246 L10.9739354,12.6291246 L9.41559442,12.4026843 C9.33077406,12.3903592 9.25744969,12.3370859 9.21951686,12.2602257 L9.21951686,12.2602257 L8.52260558,10.8481292 C8.47191275,10.7454143 8.38877342,10.6622749 8.28605853,10.6115821 Z" id="形状" fill="#FFFFFF" fill-rule="nonzero"></path>
                                <path d="M12.037037,2.56854838 L14.0401911,2.56854838 C14.7494761,2.56854838 15.3244652,1.99355924 15.3244652,1.28427419 C15.3244652,0.574989139 14.7494761,0 14.0401911,0 L2.10518223,0 C1.39589718,0 0.820908036,0.574989139 0.820908036,1.28427419 C0.820908036,1.99355924 1.39589718,2.56854838 2.10518223,2.56854838 L4.16666667,2.56854838 L4.16666667,2.56854838 L4.16666667,5.92030097 C5.21051436,5.46809475 6.4836625,5.24199167 7.98611111,5.24199167 C9.48855972,5.24199167 10.8388684,5.46809475 12.037037,5.92030097 L12.037037,2.56854838 Z" id="路径" fill="#FFFFFF" fill-rule="nonzero" opacity="0.6"></path>
                            </g>
                        </g>
                    </g>
                </g>
            </g>
        </g>
    </g>
</svg>