<?xml version="1.0" encoding="UTF-8"?>
<svg width="40px" height="40px" viewBox="0 0 40 40" version="1.1" xmlns="http://www.w3.org/2000/svg" xmlns:xlink="http://www.w3.org/1999/xlink">
    <title>discover_bangdan</title>
    <g id="页面-1" stroke="none" stroke-width="1" fill="none" fill-rule="evenodd">
        <g id="发现" transform="translate(-119.000000, -150.000000)">
            <g id="编组-6备份" transform="translate(12.000000, 136.000000)">
                <g id="discover_bangdan" transform="translate(107.000000, 14.000000)">
                    <circle id="背景备份" fill="#FA2A2D" cx="20" cy="20" r="20"></circle>
                    <path d="M22.3196248,13.2936508 L22.3196248,26.4105339 C22.3196248,27.3310085 21.5734327,28.0772006 20.6529582,28.0772006 L18.7914863,28.0772006 C17.8710117,28.0772006 17.1248196,27.3310085 17.1248196,26.4105339 L17.1248196,13.2936508 C17.1248196,12.3731762 17.8710117,11.6269841 18.7914863,11.6269841 L20.6529582,11.6269841 C21.5734327,11.6269841 22.3196248,12.3731762 22.3196248,13.2936508 Z" id="路径" fill="#FFFFFF" fill-rule="nonzero"></path>
                    <path d="M15.3932179,18.488456 L15.3932179,26.4105339 C15.3932179,27.3310085 14.6470258,28.0772006 13.7265512,28.0772006 L11.8650794,28.0772006 C10.9446048,28.0772006 10.1984127,27.3310085 10.1984127,26.4105339 L10.1984127,18.488456 C10.1984127,17.5679814 10.9446048,16.8217893 11.8650794,16.8217893 L13.7265512,16.8217893 C14.6470258,16.8217893 15.3932179,17.5679814 15.3932179,18.488456 Z" id="路径" fill="#FFFFFF" fill-rule="nonzero"></path>
                    <path d="M29.2460317,21.9516594 L29.2460317,26.4105339 C29.2460317,27.3310085 28.4998397,28.0772006 27.5793651,28.0772006 L25.7178932,28.0772006 C24.7974186,28.0772006 24.0512266,27.3310085 24.0512266,26.4105339 L24.0512266,21.9516594 C24.0512266,21.0311849 24.7974186,20.2849928 25.7178932,20.2849928 L27.5793651,20.2849928 C28.4998397,20.2849928 29.2460317,21.0311849 29.2460317,21.9516594 Z" id="路径" fill="#FFFFFF" fill-rule="nonzero" opacity="0.600000024"></path>
                </g>
            </g>
        </g>
    </g>
</svg>