<?xml version="1.0" encoding="UTF-8"?>
<svg width="40px" height="40px" viewBox="0 0 40 40" version="1.1" xmlns="http://www.w3.org/2000/svg" xmlns:xlink="http://www.w3.org/1999/xlink">
    <title>discover_tongcheng</title>
    <defs>
        <path d="M8,0 C12.4155249,0 16,3.61462993 16,8.07993288 C16,9.81891981 15.4875242,11.5181198 14.5363274,13.2354657 C13.8020092,14.5612466 12.8841239,15.7908642 11.5708109,17.3157617 C11.0748666,17.8916062 10.4189428,18.5442219 9.60163826,19.2763594 L9.60163826,19.2763594 L9.36373017,19.4877078 C8.60897119,20.1528033 7.49922334,20.1734637 6.71080477,19.5311353 L6.71080477,19.5311353 L6.64930053,19.4784426 L6.36312201,19.2219119 C5.61119893,18.5441216 5.06304023,18.0185313 4.70901218,17.6335775 L4.70901218,17.6335775 L4.62776783,17.5438829 L4.42719227,17.3138417 C1.54893302,13.9862392 0,11.1645857 0,8.07993288 C0,3.64732369 3.42305806,0.0720928756 7.76946902,0.00101422514 L7.76946902,0.00101422514 L7.89616216,0 Z M8,6.09776721 C6.92528373,6.09776721 6.05405405,6.96899689 6.05405405,8.04371316 L6.05405405,8.04371316 L6.05405405,8.15207305 C6.05405405,9.22678932 6.92528373,10.098019 8,10.098019 C9.07471627,10.098019 9.94594595,9.22678932 9.94594595,8.15207305 L9.94594595,8.15207305 L9.94594595,8.04371316 C9.94594595,6.96899689 9.07471627,6.09776721 8,6.09776721 Z" id="path-1"></path>
    </defs>
    <g id="页面-1" stroke="none" stroke-width="1" fill="none" fill-rule="evenodd">
        <g id="发现" transform="translate(-201.000000, -150.000000)">
            <g id="编组-6备份" transform="translate(12.000000, 136.000000)">
                <g id="discover_tongcheng" transform="translate(189.000000, 14.000000)">
                    <rect id="矩形备份-3" fill="#00AAEE" x="0" y="0" width="40" height="40" rx="20"></rect>
                    <ellipse id="椭圆形" stroke-opacity="0.6" stroke="#FFFFFF" stroke-width="2" cx="20" cy="27.5" rx="7" ry="3.5"></ellipse>
                    <g id="Public/ic_public_gps_filled" transform="translate(12.000000, 8.000000)">
                        <mask id="mask-2" fill="white">
                            <use xlink:href="#path-1"></use>
                        </mask>
                        <use id="路径" fill="#FFFFFF" fill-rule="nonzero" xlink:href="#path-1"></use>
                    </g>
                </g>
            </g>
        </g>
    </g>
</svg>