<?xml version="1.0" encoding="UTF-8"?>
<svg width="20px" height="17px" viewBox="0 0 20 17" version="1.1" xmlns="http://www.w3.org/2000/svg" xmlns:xlink="http://www.w3.org/1999/xlink">
    <title>ic_message</title>
    <defs>
        <filter color-interpolation-filters="auto" id="filter-1">
            <feColorMatrix in="SourceGraphic" type="matrix" values="0 0 0 0 0.094118 0 0 0 0 0.141176 0 0 0 0 0.192157 0 0 0 0.600000 0"></feColorMatrix>
        </filter>
        <path d="M13.125,2.5 C16.4283532,2.5 19.1125046,5.15111787 19.1658573,8.44175666 L19.1666667,8.54166667 L19.1666667,8.75 C19.1666667,12.0533532 16.5155488,14.7375046 13.22491,14.7908573 L13.125,14.7916667 L11.50875,14.7916667 L8.15027507,18.1502751 C7.9159605,18.3845896 7.54188489,18.3939622 7.29638943,18.1783928 L7.2663916,18.1502751 C7.03207702,17.9159605 7.02270444,17.5418849 7.23827385,17.2963894 L7.2663916,17.2663916 L10.8080583,13.7247249 C10.915501,13.6172822 11.0580345,13.552998 11.2087216,13.5430301 L11.25,13.5416667 L13.125,13.5416667 C15.7449008,13.5416667 17.8737105,11.4390559 17.9160247,8.82923897 L17.9166667,8.75 L17.9166667,8.54166667 C17.9166667,5.92176588 15.8140559,3.79295615 13.204239,3.75064195 L13.125,3.75 L6.875,3.75 C4.25509922,3.75 2.12628948,5.85261073 2.08397528,8.4624277 L2.08333333,8.54166667 L2.08333333,8.75 C2.08333333,11.3699008 4.18594406,13.4987105 6.79576103,13.5410247 L6.875,13.5416667 L7.70833333,13.5416667 C8.0535113,13.5416667 8.33333333,13.8214887 8.33333333,14.1666667 C8.33333333,14.4995169 8.07314167,14.771596 7.74505683,14.7906057 L7.70833333,14.7916667 L6.875,14.7916667 C3.57164684,14.7916667 0.887495437,12.1405488 0.834142744,8.84991001 L0.833333333,8.75 L0.833333333,8.54166667 C0.833333333,5.23831351 3.48445121,2.5541621 6.77508999,2.50080941 L6.875,2.5 L13.125,2.5 Z" id="path-2"></path>
    </defs>
    <g id="页面-1" stroke="none" stroke-width="1" fill="none" fill-rule="evenodd">
        <g id="首页" transform="translate(-156.000000, -265.000000)">
            <g id="ic_message" transform="translate(156.000000, 263.000000)" filter="url(#filter-1)">
                <g>
                    <mask id="mask-3" fill="white">
                        <use xlink:href="#path-2"></use>
                    </mask>
                    <g id="路径" fill-rule="nonzero"></g>
                    <g id="编组" mask="url(#mask-3)" fill="#000000" fill-opacity="0.9">
                        <g id="Symbol/color-light/colorPrimary">
                            <rect id="color/#000000" x="0" y="0" width="20" height="20"></rect>
                        </g>
                    </g>
                </g>
            </g>
        </g>
    </g>
</svg>