<?xml version="1.0" encoding="UTF-8"?>
<svg width="18px" height="17px" viewBox="0 0 18 17" version="1.1" xmlns="http://www.w3.org/2000/svg" xmlns:xlink="http://www.w3.org/1999/xlink">
    <title>ic_share</title>
    <defs>
        <filter color-interpolation-filters="auto" id="filter-1">
            <feColorMatrix in="SourceGraphic" type="matrix" values="0 0 0 0 0.094118 0 0 0 0 0.141176 0 0 0 0 0.192157 0 0 0 0.600000 0"></feColorMatrix>
        </filter>
        <path d="M17.7083333,12.9166667 C18.0411835,12.9166667 18.3132627,13.1768583 18.3322724,13.5049432 L18.3333333,13.5416667 L18.3333333,15 C18.3333333,16.8190331 16.8762706,18.297751 15.0655981,18.3327007 L15,18.3333333 L5,18.3333333 C3.1809669,18.3333333 1.70224902,16.8762706 1.66729925,15.0655981 L1.66666667,13.5416667 C1.66666667,13.1964887 1.9464887,12.9166667 2.29166667,12.9166667 C2.62451685,12.9166667 2.89659602,13.1768583 2.91560569,13.5049432 L2.91666667,13.5416667 L2.91666667,15 C2.91666667,16.1310916 3.81805641,17.0516524 4.94168649,17.082533 L5,17.0833333 L15,17.0833333 C16.1310916,17.0833333 17.0516524,16.1819436 17.082533,15.0583135 L17.0833333,15 L17.0833333,13.5416667 C17.0833333,13.1964887 17.3631554,12.9166667 17.7083333,12.9166667 Z M10.0233255,2.0834135 C10.3887325,2.08922235 10.7523725,2.2315392 11.0311974,2.51036406 L11.0311974,2.51036406 L14.8169417,6.2961084 L14.8421589,6.32282606 C15.0607081,6.56825895 15.0523024,6.94463126 14.8169417,7.17999188 C14.5728641,7.42406956 14.1771359,7.42406956 13.9330583,7.17999188 L13.9330583,7.17999188 L10.6236667,3.87027091 L10.6236786,14.3690944 C10.6236786,14.7142724 10.3438566,14.9940944 9.99867861,14.9940944 C9.65350064,14.9940944 9.37367861,14.7142724 9.37367861,14.3690944 L9.37366667,3.87227091 L6.06694174,7.17999188 L6.04022408,7.20520909 C5.79479119,7.42375824 5.41841888,7.4153525 5.18305826,7.17999188 C4.93898058,6.9359142 4.93898058,6.54018609 5.18305826,6.2961084 L5.18305826,6.2961084 L8.96880261,2.51036406 L9.00485162,2.47551095 C9.27926696,2.21903109 9.62856829,2.08831875 9.97931341,2.08337392 C9.98520689,2.08344029 9.99193026,2.08333333 9.99867861,2.08333333 Z" id="path-2"></path>
    </defs>
    <g id="页面-1" stroke="none" stroke-width="1" fill="none" fill-rule="evenodd">
        <g id="详情" transform="translate(-329.000000, -697.000000)">
            <g id="List/items/two-line/left/text-+-24dp-ic备份-2" transform="translate(12.000000, 693.000000)">
                <g id="ic_share" transform="translate(316.000000, 2.000000)" filter="url(#filter-1)">
                    <g>
                        <mask id="mask-3" fill="white">
                            <use xlink:href="#path-2"></use>
                        </mask>
                        <g id="合并形状" fill-rule="nonzero"></g>
                        <g id="编组" mask="url(#mask-3)" fill="#000000" fill-opacity="0.9">
                            <g id="Symbol/color-light/colorPrimary">
                                <rect id="color/#000000" x="0" y="0" width="20" height="20"></rect>
                            </g>
                        </g>
                    </g>
                </g>
            </g>
        </g>
    </g>
</svg>