<?xml version="1.0" encoding="UTF-8"?>
<svg width="20px" height="18px" viewBox="0 0 20 18" version="1.1" xmlns="http://www.w3.org/2000/svg" xmlns:xlink="http://www.w3.org/1999/xlink">
    <title>ic_thumbsup</title>
    <defs>
        <filter color-interpolation-filters="auto" id="filter-1">
            <feColorMatrix in="SourceGraphic" type="matrix" values="0 0 0 0 0.094118 0 0 0 0 0.141176 0 0 0 0 0.192157 0 0 0 0.600000 0"></feColorMatrix>
        </filter>
        <path d="M13.2542447,2.04449001 C13.870657,2.50212945 14.1458085,3.28930905 13.9487168,4.03130153 L12.9236212,7.89048495 C12.9206674,7.90160526 12.9272876,7.91301461 12.9384079,7.91596844 L16.703849,7.91666667 C18.0845609,7.91666667 19.203849,9.03595479 19.203849,10.4166667 C19.203849,10.6445278 19.1726972,10.8713194 19.1112591,11.0907415 L17.7650121,15.8987664 C17.3619669,17.3382135 16.0499408,18.3333333 14.555132,18.3333333 L3.33333333,18.3333333 C1.95262146,18.3333333 0.833333333,17.2140452 0.833333333,15.8333333 L0.833333333,10.8333333 C0.833333333,9.45262146 1.95262146,8.33333333 3.33333333,8.33333333 L6.25,8.33333333 L10.6311005,2.43225914 C11.2483823,1.6008184 12.4228039,1.42720825 13.2542447,2.04449001 Z M5.62433333,9.58282919 L3.33333333,9.58333333 C2.6586673,9.58333333 2.10883922,10.1178281 2.08419552,10.7864712 L2.08333333,15.8333333 C2.08333333,16.5079994 2.6178281,17.0578275 3.2864712,17.0824712 L3.33333333,17.0833333 L5.62433333,17.0828292 L5.62433333,9.58282919 Z M11.659287,3.14638129 L11.6347383,3.17738414 L6.87880631,9.58333333 L6.87433333,9.58282919 L6.87433333,17.0828292 L14.555132,17.0833333 C15.4695097,17.0833333 16.2744578,16.4875678 16.5444609,15.6187733 L16.561307,15.561729 L17.907554,10.7537041 C17.9382731,10.643993 17.953849,10.5305973 17.953849,10.4166667 C17.953849,9.74200064 17.4193542,9.19217255 16.7507111,9.16752885 L16.703849,9.16666667 L12.9437563,9.16666667 L12.8310155,9.16100676 C12.792875,9.15832807 12.7654699,9.15475036 12.72792,9.14754774 L12.6175046,9.12407485 C11.9545824,8.94798612 11.5538289,8.27928933 11.7041309,7.61585313 L11.7155148,7.56958168 L12.7406104,3.71039827 C12.8063076,3.46306744 12.7145904,3.20067424 12.5091197,3.04812776 C12.2426323,2.85028104 11.8704431,2.89617567 11.659287,3.14638129 Z M3.95833333,13.75 C4.3035113,13.75 4.58333333,14.029822 4.58333333,14.375 L4.58333333,15.625 C4.58333333,15.970178 4.3035113,16.25 3.95833333,16.25 C3.61315536,16.25 3.33333333,15.970178 3.33333333,15.625 L3.33333333,14.375 C3.33333333,14.029822 3.61315536,13.75 3.95833333,13.75 Z" id="path-2"></path>
    </defs>
    <g id="页面-1" stroke="none" stroke-width="1" fill="none" fill-rule="evenodd">
        <g id="详情" transform="translate(-259.000000, -696.000000)">
            <g id="List/items/two-line/left/text-+-24dp-ic备份-2" transform="translate(12.000000, 693.000000)">
                <g id="ic_thumbsup" transform="translate(247.000000, 2.000000)" filter="url(#filter-1)">
                    <g>
                        <mask id="mask-3" fill="white">
                            <use xlink:href="#path-2"></use>
                        </mask>
                        <g id="形状结合" fill-rule="nonzero"></g>
                        <g id="编组" mask="url(#mask-3)" fill="#000000" fill-opacity="0.9">
                            <g id="Symbol/color-light/colorPrimary">
                                <rect id="color/#000000" x="0" y="0" width="20" height="20"></rect>
                            </g>
                        </g>
                    </g>
                </g>
            </g>
        </g>
    </g>
</svg>