<?xml version="1.0" encoding="UTF-8"?>
<svg width="20px" height="17px" viewBox="0 0 20 17" version="1.1" xmlns="http://www.w3.org/2000/svg" xmlns:xlink="http://www.w3.org/1999/xlink">
    <title>ic_thumbsup_pre</title>
    <defs>
        <filter color-interpolation-filters="auto" id="filter-1">
            <feColorMatrix in="SourceGraphic" type="matrix" values="0 0 0 0 0.850980 0 0 0 0 0.282353 0 0 0 0 0.219608 0 0 0 1.000000 0"></feColorMatrix>
        </filter>
        <path d="M13.3113257,3.11410901 C13.8458249,3.561343 14.0640045,4.28309578 13.8667619,4.95152899 L13.2989294,6.8758503 L13.1809836,7.27555556 C13.1028305,7.54040779 13.25418,7.81846856 13.5190322,7.89662167 C13.5651052,7.91021698 13.612897,7.9171019 13.660934,7.91706414 L16.7039054,7.91661237 C18.0846173,7.91663512 19.2038869,9.03594168 19.2038642,10.4166536 C19.2038605,10.6445009 19.1727087,10.8712783 19.1112743,11.0906872 L17.9013478,15.411853 C17.4176936,17.1391896 15.8432623,18.3333333 14.0494917,18.3333333 L7.16666667,18.3333333 C6.89052429,18.3333333 6.66666667,18.1094757 6.66666667,17.8333333 L6.66666667,8.87810887 C6.66666667,8.52617118 6.79041507,8.18543889 7.01626146,7.91552492 L7.71133333,7.08333867 L7.70833333,7.08333333 L10.8461717,3.33323381 C11.4663955,2.59199068 12.5700826,2.49388517 13.3113257,3.11410901 Z M5.33333333,8.33333333 C5.60947571,8.33333333 5.83333333,8.55719096 5.83333333,8.83333333 L5.83333333,17.8333333 C5.83333333,18.1094757 5.60947571,18.3333333 5.33333333,18.3333333 L3.33333333,18.3333333 C1.95262146,18.3333333 0.833333333,17.2140452 0.833333333,15.8333333 L0.833333333,10.8333333 C0.833333333,9.45262146 1.95262146,8.33333333 3.33333333,8.33333333 L5.33333333,8.33333333 Z M3.54166667,13.75 C3.22786851,13.75 2.96808353,13.9812579 2.92344327,14.2826421 L2.91666667,14.375 L2.91666667,15.625 C2.91666667,15.970178 3.1964887,16.25 3.54166667,16.25 C3.85546482,16.25 4.1152498,16.0187421 4.15989006,15.7173579 L4.16666667,15.625 L4.16666667,14.375 C4.16666667,14.029822 3.88684464,13.75 3.54166667,13.75 Z" id="path-2"></path>
    </defs>
    <g id="页面-1" stroke="none" stroke-width="1" fill="none" fill-rule="evenodd">
        <g id="首页" transform="translate(-276.000000, -904.000000)">
            <g id="ic_thumbsup_pre" transform="translate(276.000000, 902.000000)" filter="url(#filter-1)">
                <g>
                    <mask id="mask-3" fill="white">
                        <use xlink:href="#path-2"></use>
                    </mask>
                    <g id="形状结合"></g>
                    <g id="编组" mask="url(#mask-3)" fill="#000000" fill-opacity="0.9">
                        <g id="Symbol/color-light/colorPrimary">
                            <rect id="color/#000000" x="0" y="0" width="20" height="20"></rect>
                        </g>
                    </g>
                </g>
            </g>
        </g>
    </g>
</svg>