<?xml version="1.0" encoding="UTF-8"?>
<svg width="24px" height="24px" viewBox="0 0 24 24" version="1.1" xmlns="http://www.w3.org/2000/svg" xmlns:xlink="http://www.w3.org/1999/xlink">
    <title>mine_vipsettings</title>
    <g id="页面-1" stroke="none" stroke-width="1" fill="none" fill-rule="evenodd">
        <g id="我的" transform="translate(-24.000000, -312.000000)">
            <g id="编组-4" transform="translate(12.000000, 248.000000)">
                <g id="编组" transform="translate(12.000000, 52.000000)">
                    <g id="mine_vipsettings" transform="translate(0.000000, 12.000000)">
                        <rect id="矩形" x="0" y="0" width="24" height="24"></rect>
                        <path d="M6.6189032,20.8273159 L17.4222363,20.8273159 C18.5414777,20.8273159 19.508117,20.044247 19.7404101,18.9493766 L21.9734996,8.42412588 C22.1093161,7.78397985 21.7004763,7.15493789 21.0603303,7.01912133 C20.8026938,6.96445989 20.5341889,6.99719298 20.2972304,7.11214987 L16.9081699,8.75630189 L16.9081699,8.75630189 L12.9564015,3.31970317 C12.5716399,2.79037192 11.8306212,2.67317507 11.30129,3.05793668 C11.2015095,3.13046535 11.1136667,3.21813043 11.0409361,3.31776383 L7.07090198,8.75630189 L7.07090198,8.75630189 L3.65318248,7.26957324 C3.05310528,7.00853603 2.35503413,7.28338225 2.09399692,7.88345945 C1.99437563,8.11247071 1.96966219,8.36710385 2.02338561,8.610998 L4.30460882,18.967319 C4.54389571,20.0536362 5.50654392,20.8273159 6.6189032,20.8273159 Z" id="路径-2" stroke="#182431" stroke-width="1.5"></path>
                        <path d="M9.18846411,16.0179409 L11.1294471,12.1359749 C11.3764364,11.6419964 11.9771094,11.4417721 12.4710879,11.6887613 C12.6646153,11.785525 12.8215378,11.9424475 12.9183015,12.1359749 L14.8592845,16.0179409 C15.0445264,16.3884248 14.8943582,16.8389296 14.5238743,17.0241715 C14.153433,17.2093922 13.70298,17.0592412 13.5177593,16.6887999 C13.5177465,16.6887742 13.5177336,16.6887485 13.5177208,16.6887228 L12.0238743,13.7001715 L12.0238743,13.7001715 L10.5300278,16.6887228 C10.3448497,17.0591854 9.89441395,17.2093881 9.52395136,17.02421 C9.52392568,17.0241972 9.52389999,17.0241844 9.5238743,17.0241715 C9.15339043,16.8389296 9.00322217,16.3884248 9.18846411,16.0179409 Z" id="路径" fill="#182431" fill-rule="nonzero" transform="translate(12.023874, 14.343238) scale(1, -1) translate(-12.023874, -14.343238) "></path>
                    </g>
                </g>
            </g>
        </g>
    </g>
</svg>