<?xml version="1.0" encoding="UTF-8"?>
<svg width="24px" height="24px" viewBox="0 0 24 24" version="1.1" xmlns="http://www.w3.org/2000/svg" xmlns:xlink="http://www.w3.org/1999/xlink">
    <title>mine_time</title>
    <g id="页面-1" stroke="none" stroke-width="1" fill="none" fill-rule="evenodd">
        <g id="我的" transform="translate(-24.000000, -456.000000)">
            <g id="编组-4" transform="translate(12.000000, 248.000000)">
                <g id="编组备份-5" transform="translate(12.000000, 196.000000)">
                    <g id="mine_time" transform="translate(0.000000, 12.000000)">
                        <rect id="矩形" x="0" y="0" width="24" height="24"></rect>
                        <path d="M11.75,1 C17.6870611,1 22.5,5.81293894 22.5,11.75 C22.5,17.6870611 17.6870611,22.5 11.75,22.5 C5.81293894,22.5 1,17.6870611 1,11.75 C1,5.81293894 5.81293894,1 11.75,1 Z M11.75,2.5 C6.64136606,2.5 2.5,6.64136606 2.5,11.75 C2.5,16.8586339 6.64136606,21 11.75,21 C16.8586339,21 21,16.8586339 21,11.75 C21,6.64136606 16.8586339,2.5 11.75,2.5 Z M13.3855698,12.3737513 L17.4175144,16.4068542 C17.7104076,16.6997475 17.7104076,17.1746212 17.4175144,17.4675144 C17.1246212,17.7604076 16.6497475,17.7604076 16.3568542,17.4675144 L12.3011741,13.4114355 C12.7998871,13.2460746 13.1990911,12.8624411 13.3855698,12.3737513 Z M11.75,12.5 L11.738,12.499 L11.6482294,12.4931534 C11.6468711,12.4929691 11.6455139,12.4927812 11.6441579,12.4925897 L11.75,12.5 C11.7049821,12.5 11.6608906,12.4960337 11.6180558,12.4884315 C11.5932933,12.4840301 11.5691347,12.478466 11.5454522,12.4717676 C11.531469,12.4678136 11.5176056,12.4634482 11.5039222,12.4586976 C11.4853855,12.4522542 11.4674369,12.4452168 11.4498405,12.4375237 C11.433801,12.4305265 11.4175387,12.4227142 11.4016143,12.4143461 C11.3892582,12.4078524 11.377137,12.401043 11.3652299,12.3939126 C11.349361,12.384401 11.3341208,12.3744938 11.3192761,12.364062 C11.3062317,12.3549111 11.2930268,12.3449814 11.2801703,12.3346364 C11.2696674,12.3261704 11.2598909,12.3178688 11.2503345,12.3093259 C11.2357514,12.296305 11.2213689,12.2823969 11.2075587,12.2679375 C11.1974184,12.2573362 11.1872322,12.2460209 11.1773933,12.2344021 C11.1649012,12.2196413 11.1530986,12.20457 11.1418755,12.1890522 C11.1343457,12.1786539 11.1268384,12.1676874 11.1196199,12.1565168 C11.110173,12.1418853 11.101365,12.1271636 11.0930583,12.1121263 C11.0842487,12.0961836 11.0759611,12.079796 11.0682704,12.0630769 C11.0616205,12.0486398 11.0552804,12.0336033 11.0494257,12.0183266 C11.0437895,12.0036051 11.0386815,11.9889084 11.0340256,11.974012 C11.0283903,11.9559851 11.0234084,11.9376288 11.0191198,11.9190076 C11.017192,11.9106409 11.0153885,11.9021401 11.0137303,11.8935875 C11.0041667,11.8413091 11,11.7961411 11,11.75 L11,5.5 C11,5.08578644 11.3357864,4.75 11.75,4.75 C12.1642136,4.75 12.5,5.08578644 12.5,5.5 L12.5,11.75 C12.5,12.1642136 12.1642136,12.5 11.75,12.5 L11.75,12.5 Z" id="蒙版" fill="#182431" fill-rule="nonzero"></path>
                    </g>
                </g>
            </g>
        </g>
    </g>
</svg>