<?xml version="1.0" encoding="UTF-8"?>
<svg width="24px" height="25px" viewBox="0 0 24 25" version="1.1" xmlns="http://www.w3.org/2000/svg" xmlns:xlink="http://www.w3.org/1999/xlink">
    <title>mine_like</title>
    <g id="页面-1" stroke="none" stroke-width="1" fill="none" fill-rule="evenodd">
        <g id="我的" transform="translate(-24.000000, -408.000000)">
            <g id="编组-4" transform="translate(12.000000, 248.000000)">
                <g id="编组备份-4" transform="translate(12.000000, 148.000000)">
                    <g id="mine_like" transform="translate(0.000000, 12.009795)">
                        <rect id="矩形" x="0" y="0" width="24" height="24"></rect>
                        <path d="M15.9292265,1.95338801 C16.6689213,2.50255534 16.9991032,3.44717086 16.7625931,4.33756184 L15.5324783,8.96858193 C15.5289337,8.98192631 15.536878,8.99561753 15.5502224,8.99916213 L20.0687517,9 C21.725606,9 23.0687517,10.3431458 23.0687517,12 C23.0687517,12.2734334 23.0313696,12.5455832 22.9576438,12.8088898 L21.3421474,18.5785197 C20.8584932,20.3058562 19.2840619,21.5 17.4902913,21.5 L4.02413292,21.5 C2.36727867,21.5 1.02413292,20.1568542 1.02413292,18.5 L1.02413292,12.5 C1.02413292,10.8431458 2.36727867,9.5 4.02413292,9.5 L7.52413292,9.5 L12.7814536,2.41871096 C13.5221917,1.42098208 14.9314976,1.2126499 15.9292265,1.95338801 Z M6.77413292,10.999795 L4.02413292,11 C3.21453369,11 2.55473998,11.6413937 2.52516754,12.4437654 L2.52413292,12.5 L2.52413292,18.5 C2.52413292,19.3095992 3.16552665,19.9693929 3.96789836,19.9989654 L4.02413292,20 L6.77413292,19.999795 L6.77413292,10.999795 Z M14.0152773,3.27565755 L13.9858189,3.31286096 L8.2787005,11 L8.27413292,10.999795 L8.27413292,19.999795 L17.4902913,20 C18.5875446,20 19.5534823,19.2850814 19.8774861,18.242528 L19.8977014,18.1740748 L21.5131978,12.4044449 C21.5500607,12.2727916 21.5687517,12.1367167 21.5687517,12 C21.5687517,11.1904008 20.927358,10.5306071 20.1249863,10.5010346 L20.0687517,10.5 L15.5566405,10.5 L15.4213515,10.4932081 C15.3755829,10.4899937 15.3426968,10.4857004 15.2976369,10.4770573 L15.1651385,10.4488898 C14.3696318,10.2375833 13.8887276,9.4351472 14.06909,8.63902376 L14.0827507,8.58349802 L15.3128654,3.95247792 C15.3917021,3.65568093 15.2816414,3.34080909 15.0350765,3.15775331 C14.7152916,2.92033725 14.2686647,2.9754108 14.0152773,3.27565755 Z M4.77413292,16 C5.18834649,16 5.52413292,16.3357864 5.52413292,16.75 L5.52413292,18.25 C5.52413292,18.6642136 5.18834649,19 4.77413292,19 C4.35991936,19 4.02413292,18.6642136 4.02413292,18.25 L4.02413292,16.75 C4.02413292,16.3357864 4.35991936,16 4.77413292,16 Z" id="形状结合" fill="#182431" fill-rule="nonzero"></path>
                    </g>
                </g>
            </g>
        </g>
    </g>
</svg>