<?xml version="1.0" encoding="UTF-8"?>
<svg width="24px" height="24px" viewBox="0 0 24 24" version="1.1" xmlns="http://www.w3.org/2000/svg" xmlns:xlink="http://www.w3.org/1999/xlink">
    <title>mine_vip</title>
    <g id="页面-1" stroke="none" stroke-width="1" fill="none" fill-rule="evenodd">
        <g id="我的" transform="translate(-24.000000, -196.000000)">
            <g id="编组-4备份-6" transform="translate(12.000000, 180.000000)">
                <g id="mine_vip" transform="translate(12.000000, 16.000000)">
                    <rect id="矩形" x="0" y="0" width="24" height="24"></rect>
                    <path d="M10.8792369,5.65670982 C11.1989375,5.87340977 11.5846854,6 12,6 C12.4143227,6 12.7992197,5.87401372 13.1184713,5.65826092 L16,11.2488789 L19.184068,8.8392356 C19.5013289,9.52457445 20.1951437,10 21,10 C21.0983661,10 21.1950736,9.99289872 21.2896379,9.97918084 L19.3481847,17.2040827 C19.142779,17.968587 18.4497404,18.5 17.6581229,18.5 L6.35484426,18.5 C5.55717305,18.5 4.860437,17.9605892 4.66063302,17.1883472 L2.79690281,9.98981502 C2.86368675,9.9965503 2.93144051,10 3,10 C3.81865387,10 4.52242638,9.50813443 4.83191493,8.80380587 L8,11.2488789 Z" id="形状结合" stroke="#182431" stroke-width="1.5" fill-rule="nonzero"></path>
                    <path d="M11.3385347,11.2010762 L12.7469936,11.4126564 C13.1812321,11.4778882 13.5221118,11.8187679 13.5873436,12.2530064 L13.7989238,13.6614653 C13.8809681,14.207622 13.5047306,14.7168796 12.9585739,14.7989238 C12.8600902,14.8137182 12.759949,14.8137182 12.6614653,14.7989238 L11.2530064,14.5873436 C10.8187679,14.5221118 10.4778882,14.1812321 10.4126564,13.7469936 L10.2010762,12.3385347 C10.1190319,11.792378 10.4952694,11.2831204 11.0414261,11.2010762 C11.1399098,11.1862818 11.240051,11.1862818 11.3385347,11.2010762 Z" id="矩形" stroke="#000000" stroke-width="1.5" fill-rule="nonzero" transform="translate(12.000000, 13.000000) rotate(45.000000) translate(-12.000000, -13.000000) "></path>
                    <path d="M21,6 C22.1045695,6 23,6.8954305 23,8 C23,9.1045695 22.1045695,10 21,10 C19.8954305,10 19,9.1045695 19,8 C19,6.8954305 19.8954305,6 21,6 Z M3,6 C4.1045695,6 5,6.8954305 5,8 C5,9.1045695 4.1045695,10 3,10 C1.8954305,10 1,9.1045695 1,8 C1,6.8954305 1.8954305,6 3,6 Z M12,2 C13.1045695,2 14,2.8954305 14,4 C14,5.1045695 13.1045695,6 12,6 C10.8954305,6 10,5.1045695 10,4 C10,2.8954305 10.8954305,2 12,2 Z" id="形状结合" stroke="#182431" stroke-width="1.5" fill-rule="nonzero"></path>
                    <path d="M5.75,22 C5.33578644,22 5,21.6642136 5,21.25 C5,20.8357864 5.33578644,20.5 5.75,20.5 L18.25,20.5 C18.6642136,20.5 19,20.8357864 19,21.25 C19,21.6642136 18.6642136,22 18.25,22 L5.75,22 Z" id="Path" fill="#182431" fill-rule="nonzero"></path>
                </g>
            </g>
        </g>
    </g>
</svg>