<?xml version="1.0" encoding="UTF-8"?>
<svg width="24px" height="24px" viewBox="0 0 24 24" version="1.1" xmlns="http://www.w3.org/2000/svg" xmlns:xlink="http://www.w3.org/1999/xlink">
    <title>拍摄</title>
    <g id="拍摄" stroke="none" stroke-width="1" fill="none" fill-rule="evenodd">
        <g id="编组" transform="translate(1.000000, 3.250000)" fill="#000000" opacity="0.6" fill-rule="nonzero">
            <path d="M14.1205992,0 C14.7758689,0 15.3895761,0.32098956 15.7633392,0.85920838 L16.903,2.5 L19,2.5 C20.6568542,2.5 22,3.84314575 22,5.5 L22,14.5 C22,16.1568542 20.6568542,17.5 19,17.5 L3,17.5 C1.34314575,17.5 0,16.1568542 0,14.5 L0,5.5 C0,3.84314575 1.34314575,2.5 3,2.5 L5.097,2.5 L6.23666085,0.85920838 C6.61042392,0.32098956 7.22413111,0 7.87940078,0 L14.1205992,0 Z M11,4.75 C8.37664744,4.75 6.25,6.87664744 6.25,9.5 C6.25,12.1233526 8.37664744,14.25 11,14.25 C13.6233526,14.25 15.75,12.1233526 15.75,9.5 C15.75,6.87664744 13.6233526,4.75 11,4.75 Z M11,6.25 C12.7949254,6.25 14.25,7.7050746 14.25,9.5 C14.25,11.2949254 12.7949254,12.75 11,12.75 C9.2050746,12.75 7.75,11.2949254 7.75,9.5 C7.75,7.7050746 9.2050746,6.25 11,6.25 Z" id="path-1"></path>
        </g>
    </g>
</svg>