<?xml version="1.0" encoding="UTF-8"?>
<svg width="48px" height="48px" viewBox="0 0 1024 1024" version="1.1" xmlns="http://www.w3.org/2000/svg" xmlns:xlink="http://www.w3.org/1999/xlink">
<defs>

</defs>
<g id="datashare" fill="#007dff">
    <g id="ic_cal_eight">
        <path d="M399.36 279.893333m-235.52 0a235.52 235.52 0 1 0 471.04 0 235.52 235.52 0 1 0-471.04 0Z"></path>
        <path d="M395.946667 515.413333C191.146667 515.413333 27.306667 723.626667 3.413333 989.866667H785.066667c-23.893333-266.24-187.733333-474.453333-389.12-474.453334z"></path>
        <path d="M720.213333 512c88.746667-37.546667 150.186667-126.293333 150.186667-228.693333 0-136.533333-105.813333-245.76-238.933333-245.76-27.306667 0-54.613333 6.826667-78.506667 13.653333 92.16 34.133333 160.426667 126.293333 160.426667 232.106667 0 102.4-61.44 191.146667-150.186667 228.693333 160.426667 51.2 283.306667 242.346667 303.786667 477.866667H1024c-20.48-235.52-143.36-426.666667-303.786667-477.866667z"></path>
    </g>
</g>
</svg>