<?xml version="1.0" encoding="UTF-8"?>
<svg width="24px" height="24px" viewBox="0 0 24 24" version="1.1" xmlns="http://www.w3.org/2000/svg" xmlns:xlink="http://www.w3.org/1999/xlink">
    <title>icon_smallwindow</title>
    <defs>
        <path d="M5.99836167,6.00033601 L6,7.49933601 L5.82305804,7.501658 C4.6550816,7.5151767 4.20981608,7.61305534 3.75370688,7.8569852 C3.36325774,8.06579969 3.06579969,8.36325774 2.8569852,8.75370688 C2.59290159,9.24750032 2.5,9.72858421 2.5,11.1277704 L2.50017541,16.9754617 L2.501658,17.176942 C2.5151767,18.3449184 2.61305534,18.7901839 2.8569852,19.2462931 C3.06579969,19.6367423 3.36325774,19.9342003 3.75370688,20.1430148 C4.22281064,20.3938942 4.68044405,20.4902819 5.92466189,20.4992935 L11.8722296,20.5 C13.2714158,20.5 13.7524997,20.4070984 14.2462931,20.1430148 C14.6367423,19.9342003 14.9342003,19.6367423 15.1430148,19.2462931 C15.186364,19.1652371 15.2251007,19.0845235 15.2595712,19.0000354 L16.8289225,19.000788 C16.7448743,19.3634893 16.6306025,19.6394461 16.487765,19.91208 L16.4657346,19.9536914 C16.1337211,20.5745027 15.6538954,21.0680807 15.0458564,21.4148264 L14.9536914,21.4657346 C14.3018396,21.8143488 13.6552671,22 11.8722296,22 L6.1277704,22 L5.90623426,21.9989932 C4.32561899,21.9842401 3.69843783,21.8076257 3.08791999,21.487765 L3.04630859,21.4657346 C2.42549731,21.1337211 1.93191931,20.6538954 1.58517358,20.0458564 L1.53426541,19.9536914 C1.18565122,19.3018396 1,18.6552671 1,16.8722296 L1,11.1277704 C1,9.38266989 1.17783521,8.72618864 1.51223497,8.08791999 L1.53426541,8.04630859 C1.86627892,7.42549731 2.34610464,6.93191931 2.9541436,6.58517358 L3.04630859,6.53426541 C3.68214164,6.19421817 4.3129516,6.00922291 5.99836167,6.00033601 Z M17.8722296,2 C19.6173301,2 20.2738114,2.17783521 20.91208,2.51223497 L20.9536914,2.53426541 C21.5745027,2.86627892 22.0680807,3.34610464 22.4148264,3.9541436 L22.4657346,4.04630859 C22.8143488,4.69816044 23,5.34473292 23,7.1277704 L23,12.8722296 L22.9989932,13.0937657 C22.9842401,14.674381 22.8076257,15.3015622 22.487765,15.91208 L22.4657346,15.9536914 C22.1337211,16.5745027 21.6538954,17.0680807 21.0458564,17.4148264 L20.9536914,17.4657346 C20.3018396,17.8143488 19.6552671,18 17.8722296,18 L12.1277704,18 L11.9062343,17.9989932 C10.325619,17.9842401 9.69843783,17.8076257 9.08791999,17.487765 L9.04630859,17.4657346 C8.42549731,17.1337211 7.93191931,16.6538954 7.58517358,16.0458564 L7.53426541,15.9536914 C7.18565122,15.3018396 7,14.6552671 7,12.8722296 L7,7.1277704 C7,5.38266989 7.17783521,4.72618864 7.51223497,4.08791999 L7.53426541,4.04630859 C7.86627892,3.42549731 8.34610464,2.93191931 8.9541436,2.58517358 L9.04630859,2.53426541 C9.69816044,2.18565122 10.3447329,2 12.1277704,2 L17.8722296,2 Z M18.0753381,3.50070655 L12.0245383,3.50017541 L11.823058,3.501658 C10.6550816,3.5151767 10.2098161,3.61305534 9.75370688,3.8569852 C9.36325774,4.06579969 9.06579969,4.36325774 8.8569852,4.75370688 C8.59290159,5.24750032 8.5,5.72858421 8.5,7.1277704 L8.50017541,12.9754617 L8.501658,13.176942 C8.5151767,14.3449184 8.61305534,14.7901839 8.8569852,15.2462931 C9.06579969,15.6367423 9.36325774,15.9342003 9.75370688,16.1430148 C10.2228106,16.3938942 10.680444,16.4902819 11.9246619,16.4992935 L17.8722296,16.5 C19.2714158,16.5 19.7524997,16.4070984 20.2462931,16.1430148 C20.6367423,15.9342003 20.9342003,15.6367423 21.1430148,15.2462931 C21.3938942,14.7771894 21.4902819,14.319556 21.4992935,13.0753381 L21.5,12.8722296 L21.5,7.1277704 C21.5,5.72858421 21.4070984,5.24750032 21.1430148,4.75370688 C20.9342003,4.36325774 20.6367423,4.06579969 20.2462931,3.8569852 C19.7771894,3.60610577 19.319556,3.50971811 18.0753381,3.50070655 Z M13.4411765,6.6806397 C13.6049665,6.6806397 13.7659212,6.72338353 13.9081308,6.80464615 L18.0699525,9.18282998 C18.521263,9.44072172 18.6780599,10.0156438 18.4201682,10.4669543 C18.33679,10.6128661 18.2158643,10.7337919 18.0699525,10.81717 L13.9081308,13.1953538 C13.4568202,13.4532456 12.8818982,13.2964487 12.6240065,12.8451381 C12.5427438,12.7029285 12.5,12.5419739 12.5,12.3781838 L12.5,7.62181617 C12.5,7.10201876 12.9213791,6.6806397 13.4411765,6.6806397 Z" id="path-1"></path>
    </defs>
    <g id="icon_smallwindow" stroke="none" stroke-width="1" fill="none" fill-rule="evenodd">
        <mask id="mask-2" fill="white">
            <use xlink:href="#path-1"></use>
        </mask>
        <use id="形状结合" fill="#FFFFFF" fill-rule="nonzero" xlink:href="#path-1"></use>
    </g>
</svg>