<?xml version="1.0" encoding="UTF-8"?>
<svg width="40px" height="40px" viewBox="0 0 40 40" version="1.1" xmlns="http://www.w3.org/2000/svg" xmlns:xlink="http://www.w3.org/1999/xlink">
    <title>icon_color_search</title>
    <g id="icon_color_search" stroke="none" stroke-width="1" fill="none" fill-rule="evenodd">
        <g id="搜索" transform="translate(-0.000000, 0.000000)">
            <rect id="矩形备份-9" fill="#FFFFFF" opacity="0" x="0" y="0" width="40" height="40"></rect>
            <g id="编组-5备份" transform="translate(0.000000, 0.500000)">
                <path d="M28.913437,22.5494542 L38.0168018,31.9053201 C39.293824,33.2177632 39.3117431,35.288842 38.091023,36.6225373 L37.9332202,36.7841112 L37.9332202,36.7841112 C36.5507843,38.1107806 34.3568115,38.0731943 33.0206296,36.6999504 L23.9172647,27.3440845 C22.6402426,26.0316414 22.6223234,23.9605626 23.8430435,22.6268673 L24.0008464,22.4652934 L24.0008464,22.4652934 C25.3832823,21.138624 27.577255,21.1762103 28.913437,22.5494542 Z" id="矩形" fill="#0083FF" opacity="0.6"></path>
                <ellipse id="椭圆形" fill-opacity="0.8" fill="#399FFF" cx="17.6241549" cy="17.504643" rx="17.6241549" ry="17.504643"></ellipse>
                <path d="M17.5554914,7.44185092 C11.7325097,7.44185092 7.01205038,12.1441083 7.01205038,17.9446367" id="路径" stroke="#FFFFFF" stroke-width="4" stroke-linecap="round"></path>
            </g>
        </g>
    </g>
</svg>