<?xml version="1.0" encoding="UTF-8"?>
<svg width="40px" height="40px" viewBox="0 0 40 40" version="1.1" xmlns="http://www.w3.org/2000/svg" xmlns:xlink="http://www.w3.org/1999/xlink">
    <title>icon_color_music</title>
    <g id="icon_color_music" stroke="none" stroke-width="1" fill="none" fill-rule="evenodd">
        <g id="音频">
            <rect id="矩形备份-10" fill="#FFFFFF" opacity="0" x="0" y="0" width="40" height="40"></rect>
            <g id="编组-5" transform="translate(4.000000, 1.000000)">
                <rect id="矩形" fill="#FF434A" opacity="0.6" x="3.25" y="0" width="25.5" height="25.3333333" rx="4.22222206"></rect>
                <g id="编组-6" transform="translate(0.000000, 6.000000)">
                    <rect id="形状结合" fill-opacity="0.604668037" fill="#FF6F61" x="0" y="0" width="32" height="32" rx="5.29847474"></rect>
                    <path d="M20.5462871,8.47445115 C18.5313651,9.7939175 17.4437683,9.29279217 17.4437683,12.6295157 C17.4437683,14.853998 17.4437683,18.207316 17.4437683,22.6894698 C17.4437683,24.9394431 15.1987773,27.3006192 13.1602831,27.6949883 C11.121789,28.0893574 8.8,26.7077347 8.8,24.4170414 C8.8,22.126348 10.8746345,20.846941 11.9948762,20.4281192 C12.6396849,20.1870463 14.9779963,19.4490263 14.9779963,18.3547246 L14.9779963,7.80826591 C14.9779963,7.08597818 15.4843966,6.46262393 16.1913674,6.31466493 L22.0179758,5.0952381 L22.0179758,5.0952381 C22.3801314,6.46840257 21.8895684,7.59480693 20.5462871,8.47445115 Z" id="Shape-Copy" fill="#FFFFFF"></path>
                </g>
            </g>
        </g>
    </g>
</svg>