<?xml version="1.0" encoding="UTF-8"?>
<svg width="40px" height="40px" viewBox="0 0 40 40" version="1.1" xmlns="http://www.w3.org/2000/svg" xmlns:xlink="http://www.w3.org/1999/xlink">
    <title>icon_color_setting</title>
    <g id="icon_color_setting" stroke="none" stroke-width="1" fill="none" fill-rule="evenodd">
        <g id="设置">
            <rect id="矩形备份-3" fill="#FFFFFF" opacity="0" x="0" y="0" width="40" height="40"></rect>
            <g id="Group" transform="translate(1.000000, 1.000000)">
                <path d="M27.7728254,17.8757323 L21.8511545,21.477994 C20.9882483,22.0029157 20.4615385,22.9398326 20.4615385,23.9498574 L20.4615385,31.168212 C20.4615385,32.1949352 21.0056659,33.1447569 21.8913601,33.6640896 L27.8132846,37.1364496 C28.7219151,37.6692311 29.8482995,37.6661248 30.7539776,37.1283397 L36.5839223,33.6665608 C37.4618425,33.1452581 38,32.1998222 38,31.1787931 L38,23.9391905 C38,22.9349467 37.4792564,22.0025278 36.6242313,21.4758041 L30.7940329,17.8842092 C29.8685181,17.3140615 28.701525,17.3107872 27.7728254,17.8757323 Z" id="路径-9" fill="#C0C4D9" opacity="0.6"></path>
                <path d="M13.2089409,0.808389633 C15.038109,-0.275852254 17.3145729,-0.269541475 19.1377014,0.824825253 L19.1377014,0.824825253 L29.3454107,6.9521923 C31.0878079,7.99809855 32.1538462,9.88135867 32.1538462,11.9135663 L32.1538462,11.9135663 L32.1538462,24.0623628 C32.1538462,26.1277805 31.0529716,28.0366111 29.2652336,29.0709917 L29.2652336,29.0709917 L19.0580287,34.976854 C17.275015,36.0085011 15.0779918,36.0144831 13.2893867,34.9925606 L13.2893867,34.9925606 L2.91592996,29.0656693 C1.11280855,28.0354529 3.80703342e-15,26.118012 0,24.0413337 L0,24.0413337 L0,11.9347812 C-2.30891078e-16,9.89113312 1.07797802,7.99903483 2.83598867,6.95697156 L2.83598867,6.95697156 Z M16.0769231,11.5858937 C12.8481815,11.5858937 10.2307692,14.1753932 10.2307692,17.3697027 C10.2307692,20.5640122 12.8481815,23.1535117 16.0769231,23.1535117 C19.3056647,23.1535117 21.9230769,20.5640122 21.9230769,17.3697027 C21.9230769,14.1753932 19.3056647,11.5858937 16.0769231,11.5858937 Z" id="形状结合" fill="#C0C4D9" opacity="0.8"></path>
                <circle id="椭圆形" fill="#FFFFFF" cx="16" cy="17.5" r="6"></circle>
            </g>
        </g>
    </g>
</svg>