<?xml version="1.0" encoding="UTF-8"?>
<svg width="40px" height="40px" viewBox="0 0 40 40" version="1.1" xmlns="http://www.w3.org/2000/svg" xmlns:xlink="http://www.w3.org/1999/xlink">
    <title>icon_color_favorite</title>
    <g id="icon_color_favorite" stroke="none" stroke-width="1" fill="none" fill-rule="evenodd">
        <g id="编组-3">
            <rect id="矩形备份" fill="#FFFFFF" opacity="0" x="0" y="0" width="40" height="40"></rect>
            <g id="编组-7" transform="translate(0.000000, 2.000000)">
                <path d="M34.0282859,19 C37.1175535,19 39.6532859,21.3995773 39.6532859,24.3684211 C39.6532859,29.5614189 30.0919172,36 29.6532859,36 C29.2146546,36 19.6532859,29.6413706 19.6532859,24.3684211 C19.6532859,21.3995773 22.1890182,19 25.2782859,19 C27.0573393,19 28.6143415,19.7428003 29.6532859,20.7894737 C30.6922302,19.7428003 32.2492324,19 34.0282859,19 Z" id="形状结合" fill="#FF3F45" opacity="0.6"></path>
                <path d="M27.2143088,0 C33.0628155,0 37.8633862,4.658003 37.8633862,10.4210526 C37.8633862,20.5015778 19.7620964,33 18.9316931,33 C18.1012898,33 0,20.6567783 0,10.4210526 C0,4.658003 4.80057074,0 10.6490774,0 C14.0171267,0 16.9647955,1.44190652 18.9316931,3.47368421 C20.8985907,1.44190652 23.8462595,0 27.2143088,0 Z" id="形状结合" fill-opacity="0.8" fill="#FF6469"></path>
                <path d="M13,15.0067897 C14.1184748,17.3780183 16.3847286,19 18.9984007,19 C21.6145667,19 23.8826511,17.3749216 25,15" id="路径" stroke="#FFFFFF" stroke-width="4" stroke-linecap="round"></path>
            </g>
        </g>
    </g>
</svg>