<svg width="24" height="12" viewBox="0 0 24 12" fill="none" xmlns="http://www.w3.org/2000/svg">
<g id="public/ic_public_small_expand">
<path id="&#232;&#183;&#175;&#229;&#190;&#132;" d="M18.2161 7.75173L18.1859 7.71967L13.2361 2.76992C12.567 2.10074 11.4907 2.0868 10.8045 2.7281L10.7613 2.76992L5.81151 7.71967C5.68264 7.84854 5.61047 8.01265 5.59501 8.18098L5.5922 8.22697L5.5922 8.27303C5.59782 8.45722 5.67093 8.63974 5.81151 8.78033C6.09395 9.06276 6.54559 9.07285 6.84011 8.81059L6.87218 8.78033L11.4684 4.18414C11.7508 3.9017 12.2024 3.89162 12.497 4.15388L12.529 4.18414L17.1252 8.78033C17.4181 9.07322 17.893 9.07322 18.1859 8.78033C18.3271 8.63911 18.4002 8.45559 18.4053 8.27056L18.4051 8.2243C18.3993 8.05471 18.3363 7.88672 18.2161 7.75173Z" fill="black" fill-opacity="0.4"/>
</g>
</svg>
