<svg width="24" height="24" viewBox="0 0 24 24" fill="none" xmlns="http://www.w3.org/2000/svg">
<g id="ic_ask">
<rect width="24" height="24" rx="4" fill="#999999"/>
<path id="Subtract" fill-rule="evenodd" clip-rule="evenodd" d="M8.65229 5.26705C9.11473 4.84664 9.62284 4.54103 10.1775 4.34673C10.7547 4.14977 11.3612 4.05078 11.9986 4.05078C13.2884 4.05078 14.3371 4.43141 15.1675 5.17879L15.1675 5.17882L15.1714 5.18226C16.0062 5.90757 16.4294 6.8775 16.4294 8.12456C16.4294 8.67847 16.3189 9.17615 16.1024 9.62269L16.1024 9.62268L16.1007 9.62624C15.9021 10.05 15.4451 10.621 14.6917 11.3448C13.9486 12.0582 13.4375 12.5833 13.1713 12.9121L13.1702 12.9134C12.9048 13.2451 12.703 13.6446 12.5601 14.1054L12.56 14.1054L12.5581 14.1119C12.486 14.3642 12.4384 14.6573 12.4123 14.9878C12.3849 15.334 12.1169 15.5903 11.811 15.5903C11.4938 15.5903 11.2568 15.3365 11.277 15.0508C11.3074 14.621 11.3628 14.2664 11.4401 13.9831L11.4401 13.9831L11.4406 13.981C11.5702 13.4915 11.7267 13.0742 11.9077 12.726C12.0785 12.3977 12.4956 11.8826 13.1948 11.1685L13.1948 11.1685L13.197 11.1663C13.8945 10.4391 14.3945 9.90929 14.6952 9.57859C15.0798 9.17383 15.2442 8.58758 15.2442 7.87909C15.2442 7.11161 14.9572 6.43545 14.4007 5.86253C13.8207 5.26547 12.9874 4.99053 11.954 4.99053C10.9506 4.99053 10.1259 5.24034 9.51978 5.77789C8.91367 6.31539 8.56657 7.10464 8.44555 8.10162C8.40524 8.43377 8.1466 8.67254 7.85975 8.67254C7.55122 8.67254 7.32243 8.4211 7.34827 8.14189C7.40769 7.49975 7.51368 7.00735 7.65738 6.65289L7.65739 6.6529L7.65841 6.65033C7.86278 6.13259 8.19059 5.67284 8.64852 5.27041L8.64855 5.27044L8.65229 5.26705ZM12.6887 15.7917C12.6579 15.8264 12.6252 15.8593 12.5907 15.8903H12.6904C12.6897 15.8571 12.6891 15.8242 12.6887 15.7917ZM11.0333 15.8903C11.0041 15.8637 10.9763 15.8356 10.95 15.8061C10.9499 15.834 10.9498 15.862 10.9498 15.8903H11.0333ZM8.6962 8.90853C8.67517 8.93067 8.65332 8.95203 8.63071 8.97254H8.69596C8.69596 8.95111 8.69604 8.92977 8.6962 8.90853ZM7.09181 8.97254C7.06038 8.94347 7.03066 8.91262 7.00283 8.88013C7.0018 8.91072 7.00086 8.94152 7 8.97254H7.09181ZM11.2052 18.6685C11.2052 18.2981 11.5054 17.9978 11.8759 17.9978C12.2463 17.9978 12.5466 18.2981 12.5466 18.6685V18.7801C12.5466 19.1505 12.2463 19.4508 11.8759 19.4508C11.5054 19.4508 11.2052 19.1505 11.2052 18.7801V18.6685ZM10.9052 19.6001V19.7508H11.0558C11.0015 19.7049 10.9511 19.6544 10.9052 19.6001ZM12.6959 19.7508H12.8466V19.6001C12.8007 19.6544 12.7502 19.7049 12.6959 19.7508ZM12.8466 17.8484V17.6978H12.6959C12.7502 17.7437 12.8007 17.7941 12.8466 17.8484ZM11.0558 17.6978C11.0015 17.7437 10.9511 17.7941 10.9052 17.8484V17.6978H11.0558Z" fill="white"/>
</g>
</svg>
