<?xml version="1.0" standalone="no"?><!DOCTYPE svg PUBLIC "-//W3C//DTD SVG 1.1//EN" "http://www.w3.org/Graphics/SVG/1.1/DTD/svg11.dtd"><svg t="1683789468151" class="icon" viewBox="0 0 1024 1024" version="1.1" xmlns="http://www.w3.org/2000/svg" p-id="2118" width="32" height="32" xmlns:xlink="http://www.w3.org/1999/xlink"><path d="M512 240.11c-150.13 0-271.89 121.76-271.89 271.89S361.87 783.89 512 783.89 783.89 662.13 783.89 512 662.13 240.11 512 240.11z m0 485.53C394 725.64 298.36 630 298.36 512c0-118 95.64-213.64 213.64-213.64 118 0 213.64 95.64 213.64 213.64 0 118-95.64 213.64-213.64 213.64zM482.87 64h58.25v97.14h-58.25zM174.615 215.821l41.19-41.188 68.687 68.687-41.189 41.189zM64 482.87h97.14v58.25H64zM174.585 808.217l68.698-68.678 41.182 41.195-68.697 68.678zM482.87 862.86h58.25V960h-58.25zM739.488 780.694l41.188-41.189 68.688 68.688-41.189 41.189zM862.86 482.87H960v58.25h-97.14zM739.476 243.28l68.687-68.688 41.189 41.19-68.688 68.687z" p-id="2119" fill="#999999"></path></svg>