<svg width="24" height="24" viewBox="0 0 24 24" fill="none" xmlns="http://www.w3.org/2000/svg">
<g id="ic_user">
<rect width="24" height="24" rx="4" fill="#007DFF"/>
<g id="Frame" clip-path="url(#clip0_167_220020)">
<g id="_Public/ic_public_face">
<path id="_&#229;&#189;&#162;&#231;&#138;&#182;&#231;&#187;&#147;&#229;&#144;&#136;" d="M11.9993 4.66797C13.9443 4.66797 15.8095 5.44059 17.1848 6.81585C18.5601 8.19112 19.3327 10.0564 19.3327 12.0013C19.3327 16.0514 16.0494 19.3346 11.9993 19.3346C7.94926 19.3346 4.66602 16.0514 4.66602 12.0013C4.66602 7.95121 7.94926 4.66797 11.9993 4.66797ZM11.9993 5.66797C8.50155 5.66797 5.66602 8.5035 5.66602 12.0013C5.66602 15.4991 8.50155 18.3346 11.9993 18.3346C13.6791 18.3346 15.29 17.6674 16.4777 16.4796C17.6654 15.2919 18.3327 13.681 18.3327 12.0013C18.3327 8.5035 15.4972 5.66797 11.9993 5.66797ZM15.384 13.5514C15.6325 13.6718 15.7364 13.9709 15.616 14.2194C14.9453 15.6038 13.5524 16.5014 11.9993 16.5014C10.4463 16.5014 9.05341 15.6038 8.38271 14.2194C8.26231 13.9709 8.36617 13.6718 8.61468 13.5514C8.8632 13.431 9.16226 13.5349 9.28266 13.7834C9.78834 14.8272 10.8346 15.5014 11.9993 15.5014C13.1641 15.5014 14.2104 14.8272 14.716 13.7834C14.8364 13.5349 15.1355 13.431 15.384 13.5514ZM12.0974 10.011C12.3585 10.0632 12.5311 10.31 12.4946 10.5704L12.4896 10.5994L12.1092 12.5013H12.4993C12.7656 12.5013 12.9833 12.7095 12.9985 12.9719L12.9993 13.0013C12.9993 13.2676 12.7912 13.4852 12.5287 13.5005L12.4993 13.5013H11.4993C11.1937 13.5013 10.962 13.2304 11.0041 12.9322L11.0091 12.9032L11.5091 10.4032C11.5632 10.1325 11.8266 9.95686 12.0974 10.011ZM8.83268 9.33464C9.29289 9.33464 9.66602 9.70776 9.66602 10.168C9.66602 10.6282 9.29289 11.0013 8.83268 11.0013C8.37247 11.0013 7.99935 10.6282 7.99935 10.168C7.99935 9.70776 8.37247 9.33464 8.83268 9.33464ZM15.166 9.33464C15.6262 9.33464 15.9993 9.70776 15.9993 10.168C15.9993 10.6282 15.6262 11.0013 15.166 11.0013C14.7058 11.0013 14.3327 10.6282 14.3327 10.168C14.3327 9.70776 14.7058 9.33464 15.166 9.33464Z" fill="white"/>
</g>
</g>
</g>
<defs>
<clipPath id="clip0_167_220020">
<rect width="16" height="16" fill="white" transform="translate(4 4)"/>
</clipPath>
</defs>
</svg>
