<?xml version="1.0" standalone="no"?><!DOCTYPE svg PUBLIC "-//W3C//DTD SVG 1.1//EN" "http://www.w3.org/Graphics/SVG/1.1/DTD/svg11.dtd"><svg t="1683789479978" class="icon" viewBox="0 0 1024 1024" version="1.1" xmlns="http://www.w3.org/2000/svg" p-id="2417" xmlns:xlink="http://www.w3.org/1999/xlink" width="32" height="32"><path d="M167.86 798.72l57.34 57.34 73.31-72.9-57.7-57.76m230.48 232.56h81.45V837.89h-81.45m40.73-570.18C377.15 267.84 267.84 377.13 267.7 512c0.11 134.89 109.41 244.22 244.3 244.36 134.92-0.1 244.27-109.44 244.38-244.36 0.03-134.93-109.32-244.33-244.25-244.36H512m325.82 285.09H960v-81.46H837.82M725.41 783.24l73.31 72.9 57.34-57.34-72.81-73.38m72.9-500.14l-57.34-57.34-73.31 72.9 57.83 57.83M552.73 66.04h-81.45V186.1h81.45M186.18 471.27H64v81.45h122.18m112.41-311.98l-73.31-72.9-57.34 57.34 72.88 73.4 57.77-57.84z" p-id="2418" fill="#333333"></path></svg>