<svg width="24" height="24" viewBox="0 0 24 24" fill="none" xmlns="http://www.w3.org/2000/svg">
<g id="ic_phone">
<rect width="24" height="24" rx="4" fill="#61CFBE"/>
<g id="Frame">
<g id="__Public/ic_public_devices_phone">
<path id="__&#229;&#189;&#162;&#231;&#138;&#182;&#231;&#187;&#147;&#229;&#144;&#136;" d="M13.7688 4.33203C14.6603 4.33203 14.9836 4.42486 15.3095 4.59916C15.6355 4.77347 15.8912 5.02926 16.0655 5.35519L16.0924 5.40671C16.2494 5.71672 16.3327 6.05132 16.3327 6.89592V9.16536C16.5168 9.16536 16.666 9.3146 16.666 9.4987V10.832C16.666 11.0161 16.5168 11.1654 16.3327 11.1654V17.1015L16.3319 17.2376C16.3227 18.027 16.2307 18.3334 16.0655 18.6422C15.8912 18.9681 15.6355 19.2239 15.3095 19.3982L15.258 19.4251C14.948 19.5821 14.6134 19.6654 13.7688 19.6654H10.2299L10.0938 19.6646C9.30434 19.6554 8.99794 19.5634 8.68917 19.3982C8.36324 19.2239 8.10746 18.9681 7.93315 18.6422L7.90631 18.5907C7.74933 18.2807 7.66602 17.9461 7.66602 17.1015V6.89592C7.66602 6.0044 7.75884 5.68111 7.93315 5.35519C8.10746 5.02926 8.36324 4.77347 8.68917 4.59916L8.74069 4.57232C9.0507 4.41534 9.3853 4.33203 10.2299 4.33203H13.7688ZM13.8277 5.33203H10.2299L10.0605 5.33302C9.53137 5.3397 9.34779 5.38096 9.16077 5.48098C9.00911 5.56208 8.89607 5.67513 8.81496 5.82678C8.70827 6.02628 8.66844 6.22185 8.66612 6.837V17.1604L8.66705 17.2743C8.67386 17.8008 8.71515 17.984 8.81496 18.1706C8.89607 18.3223 9.00911 18.4353 9.16077 18.5164C9.34779 18.6164 9.53137 18.6577 10.0605 18.6644L10.2299 18.6654H13.7688C14.4306 18.6654 14.6322 18.6264 14.8379 18.5164C14.9896 18.4353 15.1026 18.3223 15.1837 18.1706C15.2838 17.9836 15.325 17.8 15.3317 17.2709L15.3327 17.1015V6.89592C15.3327 6.23406 15.2938 6.03251 15.1837 5.82678C15.1026 5.67513 14.9896 5.56208 14.8379 5.48098C14.6384 5.37429 14.4429 5.33446 13.8277 5.33203Z" fill="white"/>
</g>
</g>
</g>
</svg>
