<svg width="24" height="24" viewBox="0 0 24 24" fill="none" xmlns="http://www.w3.org/2000/svg">
<g id="ic_call">
<rect width="24" height="24" rx="4" fill="#64BB5C"/>
<path id="Subtract" d="M7.44462 5.43974C7.05303 5.52942 6.67758 5.7849 6.30512 6.18992L6.26649 6.23279L6.27786 6.22112C5.54637 6.94666 5.24161 7.99661 5.47198 8.99901C5.89362 10.8139 7.27464 12.9793 9.13701 14.8607C11.022 16.7266 13.1874 18.1077 15.0011 18.529L15.0626 18.5425C16.0269 18.7428 17.0268 18.4525 17.7353 17.7677L17.7685 17.7346L17.7577 17.7447C18.212 17.3401 18.4905 16.9327 18.5723 16.5055C18.6934 15.8729 18.4483 15.2226 17.9447 14.8174L16.5938 13.7225C15.9818 13.1792 15.0619 13.1909 14.466 13.7456L14.4316 13.7787L14.415 13.7955L13.7909 14.457C13.7029 14.545 13.5519 14.5624 13.435 14.4894C12.878 14.1432 12.0867 13.4676 11.32 12.6874L11.1739 12.5423C10.4505 11.8165 9.8365 11.0885 9.51247 10.5672C9.43884 10.4494 9.45623 10.2984 9.55417 10.2007L10.2058 9.58625L10.2226 9.56965L10.2496 9.54166C10.8 8.95048 10.8215 8.05342 10.3099 7.44337L10.2357 7.35571L9.48464 6.4298C9.38071 6.30103 9.27782 6.17338 9.18387 6.05661C8.77863 5.55294 8.12838 5.30788 7.49579 5.42898L7.44462 5.43974ZM17.5901 16.3175C17.5563 16.494 17.3975 16.7265 17.0926 16.9979L17.0702 17.0192C16.588 17.5053 15.8913 17.7075 15.2262 17.5547C13.6194 17.1814 11.605 15.8967 9.84411 14.1536C8.10462 12.3963 6.81988 10.3819 6.44631 8.77387C6.2981 8.12899 6.48473 7.45302 6.94111 6.97295L7.00338 6.90863C7.2748 6.60382 7.50724 6.44495 7.68381 6.41115C7.94992 6.3602 8.22939 6.46553 8.40474 6.68347L9.34888 7.85077L9.55442 8.09901C9.73123 8.32148 9.72023 8.64278 9.52372 8.85387L9.51081 8.86711L8.85802 9.48296C8.42017 9.91927 8.34369 10.5838 8.66378 11.0961C9.0575 11.7295 9.78094 12.5769 10.6129 13.3945L10.7704 13.553C11.5328 14.3123 12.3127 14.9692 12.9061 15.3381L12.9429 15.3602C13.449 15.6537 14.0922 15.5709 14.5087 15.1532L15.1338 14.4906L15.1538 14.4715C15.3587 14.2808 15.6798 14.27 15.9038 14.4482L16.0268 14.5511C16.258 14.7414 16.8347 15.2078 17.3178 15.5965C17.5357 15.7719 17.6411 16.0514 17.5901 16.3175Z" fill="white"/>
</g>
</svg>
