<svg width="24" height="24" viewBox="0 0 24 24" fill="none" xmlns="http://www.w3.org/2000/svg">
<g id="ic_wifi">
<rect width="24" height="24" rx="4" fill="#64BB5C"/>
<g id="Frame">
<g id="__Public/ic_public_wlan">
<path id="__&#229;&#144;&#136;&#229;&#185;&#182;&#229;&#189;&#162;&#231;&#138;&#182;" d="M12.0007 14.8333C12.8291 14.8333 13.5007 15.5049 13.5007 16.3333C13.5007 17.1618 12.8291 17.8333 12.0007 17.8333C11.1723 17.8333 10.5007 17.1618 10.5007 16.3333C10.5007 15.5049 11.1723 14.8333 12.0007 14.8333ZM12.0007 11.8537C13.4194 11.8537 14.7409 12.4618 15.6631 13.5033C15.8462 13.71 15.827 14.026 15.6202 14.2091C15.4135 14.3921 15.0975 14.3729 14.9144 14.1662C14.1801 13.3369 13.13 12.8537 12.0007 12.8537C10.8709 12.8537 9.82044 13.3373 9.08612 14.1671C8.90313 14.3739 8.58714 14.3932 8.38033 14.2103C8.17353 14.0273 8.15422 13.7113 8.33722 13.5045C9.25939 12.4623 10.5814 11.8537 12.0007 11.8537ZM12.0007 8.92683C14.2022 8.92683 16.2582 9.84228 17.7276 11.4233C17.9156 11.6255 17.904 11.9419 17.7018 12.1299C17.4995 12.3179 17.1831 12.3063 16.9951 12.104C15.713 10.7246 13.9214 9.92683 12.0007 9.92683C10.0798 9.92683 8.28805 10.7247 7.00587 12.1044C6.81789 12.3067 6.50152 12.3183 6.29924 12.1303C6.09696 11.9423 6.08537 11.626 6.27335 11.4237C7.74281 9.84245 9.79898 8.92683 12.0007 8.92683ZM12.0007 6C14.987 6 17.7788 7.22516 19.7944 9.3486C19.9845 9.54888 19.9762 9.86536 19.7759 10.0555C19.5756 10.2456 19.2592 10.2373 19.0691 10.037C17.2404 8.11052 14.7098 7 12.0007 7C9.29184 7 6.76151 8.11025 4.93293 10.0364C4.7428 10.2366 4.42633 10.2449 4.22606 10.0547C4.02579 9.86462 4.01757 9.54814 4.2077 9.34787C6.22318 7.22488 9.01474 6 12.0007 6Z" fill="white"/>
</g>
</g>
</g>
</svg>
