<svg width="24" height="24" viewBox="0 0 24 24" fill="none" xmlns="http://www.w3.org/2000/svg">
<g id="ic_bluetooth">
<rect width="24" height="24" rx="4" fill="#0A59F7"/>
<path id="Subtract" d="M13.1787 12.4706L15.6587 14.9507C16.0392 15.3312 16.049 15.9421 15.688 16.3344L15.6428 16.3805L13.0246 18.8849C12.6255 19.2667 11.9924 19.2526 11.6107 18.8535C11.4438 18.679 11.3461 18.4505 11.3345 18.2104L11.3333 18.1623V14.3153L12.3333 13.3153V18.1623L14.9516 15.6578L12.4713 13.1773L13.1787 12.4706ZM9.5553 15.1509C9.55545 15.1511 9.55561 15.1513 9.55576 15.1515L8.35355 16.3527C8.1661 16.5401 7.86684 16.5476 7.67044 16.3752L7.64645 16.3527C7.45899 16.1652 7.4515 15.8659 7.62395 15.6695L7.64645 15.6456L11.2928 11.9991L7.64645 8.35266C7.45899 8.16521 7.4515 7.86595 7.62395 7.66955L7.64645 7.64555C7.8339 7.4581 8.13316 7.4506 8.32956 7.62306L8.35355 7.64555L11.3333 10.6253V5.83594C11.3333 5.2962 11.7609 4.85634 12.2958 4.83663L12.3333 4.83594C12.5748 4.83594 12.8075 4.92326 12.989 5.08085L13.0246 5.1133L15.6428 7.61774C16.0317 7.9897 16.055 8.6002 15.7028 9.00045L15.6645 9.04164L9.5553 15.1509ZM12.3333 5.83594V10.9584L14.9516 8.34038L12.3333 5.83594Z" fill="white"/>
</g>
</svg>
