<?xml version="1.0" encoding="UTF-8"?>
<svg width="120px" height="120px" viewBox="0 0 120 120" version="1.1" xmlns="http://www.w3.org/2000/svg" xmlns:xlink="http://www.w3.org/1999/xlink">
    <title>8</title>
    <g id="8" stroke="none" stroke-width="1" fill="none" fill-rule="evenodd">
        <g id="Grid/item/entrances/icon">
            <path d="M62.7165221,20.8049002 C64.5818046,21.1285691 66.1822503,21.620546 70.5701214,23.5237196 L106.622152,39.1607501 C109.662218,40.4793334 111.057756,44.0127169 109.739173,47.052783 C109.133302,48.449652 108.019021,49.5639323 106.622152,50.1698034 L70.5701214,65.8068338 C66.1822503,67.7100075 64.5818046,68.2019843 62.7165221,68.5256533 C60.8512396,68.8493223 59.0793139,68.8493223 57.2140314,68.5256533 C55.3487489,68.2019843 53.7483031,67.7100075 49.360432,65.8068338 L13.3084012,50.1698034 C10.268335,48.8512201 8.87279749,45.3178366 10.1913808,42.2777704 C10.7972519,40.8809015 11.9115322,39.7666212 13.3084012,39.1607501 L49.360432,23.5237196 C53.7483031,21.620546 55.3487489,21.1285691 57.2140314,20.8049002 C59.0793139,20.4812312 60.8512396,20.4812312 62.7165221,20.8049002 Z M64.1037954,42.5733717 L53.9652767,42.5733717 L53.5752347,42.5919115 C51.5214746,42.7881603 49.9152767,44.5181922 49.9152767,46.6233717 C49.9152767,48.8601249 51.7285235,50.6733717 53.9652767,50.6733717 L53.9652767,50.6733717 L64.1037954,50.6733717 L64.4938374,50.6548319 C66.5475976,50.4585831 68.1537954,48.7285512 68.1537954,46.6233717 C68.1537954,44.3866185 66.3405486,42.5733717 64.1037954,42.5733717 L64.1037954,42.5733717 Z" id="形状结合" fill="#1A7BFF" opacity="0.831380208"></path>
            <path d="M89.8640894,54.413858 C90.8488694,54.9329164 91.4652767,55.9545903 91.4652767,57.0677899 L91.4652767,79.0208624 C91.4652733,83.9146544 88.4935316,88.3181594 83.9552061,90.1492249 C73.5881565,94.3319894 65.5459266,96.4233717 59.8285161,96.4233717 C54.1205733,96.4233717 46.1556034,94.3389101 35.9336065,90.1699868 C31.4173836,88.3280971 28.4652767,83.9359318 28.4652767,79.0585527 L28.4652767,57.0977378 C28.4652928,55.9695131 29.0982852,54.9366858 30.1035948,54.4245887 C36.8117554,51.0075023 43.4512523,48.7129792 50.0220853,47.5410193 C50.4363853,49.3365365 52.0447137,50.6733717 53.9652767,50.6733717 L53.9652767,50.6733717 L64.1037954,50.6733717 L64.4938374,50.6548319 C66.3659977,50.4759361 67.866246,49.0225088 68.1169215,47.1722109 C75.3734095,48.1830185 82.6229391,50.5972827 89.8640894,54.413858 Z" id="形状结合" fill="#4191FF" opacity="0.699999988" style="mix-blend-mode: multiply;"></path>
            <path d="M101.395954,54.7112353 L101.510074,54.7112353 C103.166929,54.7112353 104.510074,56.0543811 104.510074,57.7112353 L104.510074,79.5877079 C104.510074,81.2445621 103.166929,82.5877079 101.510074,82.5877079 L101.395954,82.5877079 C99.7390999,82.5877079 98.3959541,81.2445621 98.3959541,79.5877079 L98.3959541,57.7112353 C98.3959541,56.0543811 99.7390999,54.7112353 101.395954,54.7112353 Z" id="矩形" fill="#1A7BFF" opacity="0.831380208" transform="translate(101.453014, 68.649472) scale(1, -1) translate(-101.453014, -68.649472) "></path>
        </g>
    </g>
</svg>