<?xml version="1.0" encoding="UTF-8"?>
<svg width="120px" height="120px" viewBox="0 0 120 120" version="1.1" xmlns="http://www.w3.org/2000/svg" xmlns:xlink="http://www.w3.org/1999/xlink">
    <title>5</title>
    <defs>
        <path d="M85.7142857,45.3896104 L85.7142857,67.5974026 C85.7142857,71.1478046 82.8361162,74.025974 79.2857143,74.025974 L68.7662338,74.025974 C65.2158318,74.025974 62.3376623,71.1478046 62.3376623,67.5974026 L62.3376623,45.3896104 C62.3376623,41.8392084 65.2158318,38.961039 68.7662338,38.961039 L79.2857143,38.961039 C82.8361162,38.961039 85.7142857,41.8392084 85.7142857,45.3896104 Z M54.5454545,6.42857143 L54.5454545,67.5974026 C54.5454545,71.1478046 51.6672851,74.025974 48.1168831,74.025974 L37.5974026,74.025974 C34.0470006,74.025974 31.1688312,71.1478046 31.1688312,67.5974026 L31.1688312,6.42857143 C31.1688312,2.87816947 34.0470006,3.40824533e-13 37.5974026,3.41060513e-13 L48.1168831,3.41060513e-13 C51.6672851,3.40408315e-13 54.5454545,2.87816947 54.5454545,6.42857143 Z M23.3766234,29.8051948 L23.3766234,67.5974026 C23.3766234,71.1478046 20.4984539,74.025974 16.9480519,74.025974 L6.42857143,74.025974 C2.87816947,74.025974 -4.5337958e-16,71.1478046 0,67.5974026 L0,29.8051948 C-1.32297726e-15,26.2547928 2.87816947,23.3766234 6.42857143,23.3766234 L16.9480519,23.3766234 C20.4984539,23.3766234 23.3766234,26.2547928 23.3766234,29.8051948 Z" id="path-1"></path>
    </defs>
    <g id="5" stroke="none" stroke-width="1" fill="none" fill-rule="evenodd">
        <g id="ic_ranking">
            <rect id="矩形" fill="#FFFFFF" opacity="0" x="0" y="0" width="120" height="120"></rect>
            <g id="icon/BottomNavigationBar/ic_ranking_active" transform="translate(17.142857, 22.071429)">
                <mask id="mask-2" fill="white">
                    <use xlink:href="#path-1"></use>
                </mask>
                <use id="形状" fill="#FFAA36" style="mix-blend-mode: multiply;" xlink:href="#path-1"></use>
                <path d="M54.5454545,6.42857143 L54.5454545,67.5974026 C54.5454545,71.1478046 51.6672851,74.025974 48.1168831,74.025974 L37.5974026,74.025974 C34.0470006,74.025974 31.1688312,71.1478046 31.1688312,67.5974026 L31.1688312,6.42857143 C31.1688312,2.87816947 34.0470006,-2.3598016e-16 37.5974026,0 L48.1168831,0 C51.6672851,-6.5219826e-16 54.5454545,2.87816947 54.5454545,6.42857143 Z" id="路径" fill="#FFAA36" style="mix-blend-mode: multiply;"></path>
            </g>
        </g>
    </g>
</svg>