<?xml version="1.0" encoding="UTF-8"?>
<svg width="120px" height="120px" viewBox="0 0 120 120" version="1.1" xmlns="http://www.w3.org/2000/svg" xmlns:xlink="http://www.w3.org/1999/xlink">
    <title>7</title>
    <g id="7" stroke="none" stroke-width="1" fill="none" fill-rule="evenodd">
        <g id="Grid/item/entrances/icon">
            <rect id="矩形" fill="#FFFFFF" opacity="0" x="0" y="0" width="120" height="120"></rect>
            <path d="M59.9349092,15 C68.1339199,15 74.7711933,21.3725406 74.7711933,29.2744973 C74.7711933,29.6568492 74.6410501,29.9117514 74.6410501,30.1666536 C81.5386278,26.7254854 90.1280949,29.1470476 94.0323647,35.7744933 C97.9366492,42.401939 95.8543622,50.8136771 89.3472115,54.8921584 C95.8543622,58.9705821 97.9366492,67.3823346 94.0323647,74.0098235 C90.1280802,80.6372692 81.6687799,82.9313861 74.6410501,79.6176633 C74.1204784,87.0098098 67.7434725,93 59.9348887,93 C52.1263459,93 45.7493327,87.0097954 45.2287683,79.4902035 C38.3311906,82.9313717 29.8719051,80.5098094 25.9676353,74.0098235 C22.0633508,67.3823778 24.1456378,58.9706398 30.6527885,54.8921584 C24.1456378,50.8137347 22.0633508,42.4019823 25.9676353,35.7744933 C29.8719198,29.1470476 38.3312201,26.8529307 45.2287683,30.1666536 C45.2287683,29.9117514 45.0986251,29.5293995 45.0986251,29.2744973 C45.0986251,21.3725406 51.7359132,15 59.9349092,15 Z M60,42.8311392 C53.8277353,42.8311392 48.8311392,47.8277353 48.8311392,54 C48.8311392,60.1722647 53.8277353,65.1688608 60,65.1688608 C66.1722647,65.1688608 71.1688608,60.1722647 71.1688608,54 C71.1688608,47.8277353 66.1722647,42.8311392 60,42.8311392 Z" id="形状结合" fill="#FFA200"></path>
            <path d="M60.5556189,78.4639792 C62.7846516,78.6496622 64.4411139,80.607176 64.2554309,82.8362087 C63.6211225,90.4507712 64.4593627,96.7814584 66.7045547,101.863304 C67.608477,103.909273 66.6826652,106.300632 64.6366961,107.204555 C62.590727,108.108477 60.1993676,107.182665 59.2954453,105.136696 C56.4588852,98.7163278 55.4433989,91.047015 56.1833894,82.1637913 C56.3581498,80.0658781 58.1024213,78.4751554 60.1653841,78.4500758 L60.5556189,78.4639792 Z" id="路径-18" fill="#FFA200" style="mix-blend-mode: multiply;" opacity="0.7"></path>
        </g>
    </g>
</svg>