<svg height="120" viewBox="0 0 120 120" width="120" xmlns="http://www.w3.org/2000/svg"><g fill="#f36065" fill-rule="evenodd"><path d="m74.6166888 24.971691c5.3491124 0 7.2888299.5569537 9.2443854 1.6027962 1.9555556 1.0458426 3.490287 2.580574 4.5361296 4.5361296 1.0458425 1.9555556 1.6027962 3.895273 1.6027962 9.2443854v46.2616866c0 5.3491124-.5569537 7.2888299-1.6027962 9.2443854-1.0458426 1.9555556-2.580574 3.490287-4.5361296 4.5361298-1.9555555 1.045842-3.895273 1.602796-9.2443854 1.602796h-41.2333776c-5.3491124 0-7.2888299-.556954-9.2443854-1.602796-1.9555556-1.0458428-3.490287-2.5805742-4.5361296-4.5361298-1.0458425-1.9555555-1.6027962-3.895273-1.6027962-9.2443854v-46.2616866c0-5.3491124.5569537-7.2888298 1.6027962-9.2443854 1.0458426-1.9555556 2.580574-3.490287 4.5361296-4.5361296 1.9555555-1.0458425 3.895273-1.6027962 9.2443854-1.6027962zm-41.7777719 44.439409c-2.3195959 0-4.2 1.8804041-4.2 4.2 0 2.319596 1.8804041 4.2 4.2 4.2 2.319596 0 4.2-1.880404 4.2-4.2 0-2.3195959-1.880404-4.2-4.2-4.2zm31.6500355.3h-18.4500355c-2.1539105 0-3.9 1.7460895-3.9 3.9 0 2.1539106 1.7460895 3.9 3.9 3.9h18.4500355c2.1539105 0 3.9-1.7460894 3.9-3.9 0-2.1539105-1.7460895-3.9-3.9-3.9zm-31.6500355-21.0383908c-2.3195959 0-4.2 1.880404-4.2 4.2 0 2.3195959 1.8804041 4.2 4.2 4.2 2.319596 0 4.2-1.8804041 4.2-4.2 0-2.319596-1.880404-4.2-4.2-4.2zm31.6500355.3h-18.4500355c-2.1539105 0-3.9 1.7460894-3.9 3.9 0 2.1539105 1.7460895 3.9 3.9 3.9h18.4500355c2.1539105 0 3.9-1.7460895 3.9-3.9 0-2.1539106-1.7460895-3.9-3.9-3.9z"/><path d="m88.8957086 48.2180385h2.2085828c3.5639893 0 5.8012273.5569537 7.7567828 1.6027962 1.9555558 1.0458426 3.4902868 2.580574 4.5361298 4.5361296 1.045842 1.9555556 1.602796 4.1927935 1.602796 7.7567828v25.9905443c0 3.5639893-.556954 5.8012273-1.602796 7.7567828-1.045843 1.9555556-2.580574 3.490287-4.5361298 4.5361298-1.9555555 1.045842-4.1927935 1.602796-7.7567828 1.602796h-2.2085828c-3.5639893 0-5.8012273-.556954-7.7567828-1.602796-1.9555556-1.0458428-3.490287-2.5805742-4.5361296-4.5361298-1.0458425-1.9555555-1.6027962-4.1927935-1.6027962-7.7567828v-25.9905443c0-3.5639893.5569537-5.8012272 1.6027962-7.7567828 1.0458426-1.9555556 2.580574-3.490287 4.5361296-4.5361296 1.9555555-1.0458425 4.1927935-1.6027962 7.7567828-1.6027962z" opacity=".6"/></g></svg>