<?xml version="1.0" encoding="UTF-8"?>
<svg width="120px" height="120px" viewBox="0 0 120 120" version="1.1" xmlns="http://www.w3.org/2000/svg" xmlns:xlink="http://www.w3.org/1999/xlink">
    <title>6</title>
    <g id="6" stroke="none" stroke-width="1" fill="none" fill-rule="evenodd">
        <g id="Grid/item/entrances/icon" fill="#898AFF">
            <path d="M71.642259,40.5602622 L73.3838628,24.3798478 C73.7384905,21.0851698 71.3551088,18.126823 68.0604308,17.7721952 C66.0745854,17.5584457 64.1125692,18.346886 62.8268278,19.8753296 L48.4179553,37.0040833 L48.4179553,37.0040833 L30.2528002,58.4744651 C26.4355568,62.9864695 29.2159669,69.893429 35.0922084,70.4965165 L45.8436553,71.5999538 L60.7288538,73.1276441 C64.7754625,73.5429537 68.4078521,70.6096022 68.8420355,66.5758102 L71.642259,40.5602622 Z" id="Fill-1"></path>
            <path d="M48.9376424,61.8682444 L46.4754531,85.6160722 L46.4754531,85.6160722 L45.4703668,95.3101339 C44.7191737,102.555396 53.5566175,106.404723 58.1375489,100.827535 L69.4009418,87.1155777 L87.1408889,65.5192181 C90.8687321,60.9811877 88.1444966,54.0263545 82.3992161,53.4142098 L73.9340071,52.5122637 L62.0546035,51.2465441 C55.5096091,50.5491919 49.6385272,55.2896426 48.941175,61.834637 C48.9399816,61.8458378 48.9388041,61.8570403 48.9376424,61.8682444 Z" id="Fill-3" opacity="0.699999988" style="mix-blend-mode: multiply;"></path>
        </g>
    </g>
</svg>