<?xml version="1.0" encoding="UTF-8"?>
<svg width="24px" height="24px" viewBox="0 0 24 24" version="1.1" xmlns="http://www.w3.org/2000/svg" xmlns:xlink="http://www.w3.org/1999/xlink">
    <title>ic_gallery_discover_filled</title>
    <g id="页面-1" stroke="none" stroke-width="1" fill="none" fill-rule="evenodd">
        <g id="发现" transform="translate(-168.000000, -866.000000)">
            <g id="BottomNavigationBar/Port/Item_3" transform="translate(0.000000, 859.000000)">
                <g id="Bottom-tab/item/normal" transform="translate(132.727273, 7.000000)">
                    <g id="ic_gallery_discover_filled" transform="translate(35.272727, 0.000000)">
                        <rect id="矩形" x="0" y="0" width="24" height="24"></rect>
                        <path d="M5.26445463,2.62145105 C5.32959649,2.9955171 5.10546182,3.35306694 4.75333428,3.46479816 L4.65424729,3.48900335 C4.03143964,3.5974624 3.65381816,3.95186126 3.53717294,4.58171578 L3.53652183,4.59853044 L3.53652183,4.59853044 C3.52364092,4.67249689 3.51385964,4.74871307 3.50712072,4.82708317 C3.48147906,5.15409609 3.51489185,5.54334599 3.60790168,5.99717762 C3.97180574,7.77280885 5.24154772,10.1146376 7.20807441,12.5282732 C8.29285542,13.8596897 9.49381976,15.093685 10.7220688,16.1771021 L11.2498726,16.6320497 C12.2742284,17.4946303 13.3086308,18.2482581 14.3022567,18.8625435 C15.7232695,19.7379581 17.0445997,20.3134595 18.1474918,20.53949 C18.4790939,20.6074497 18.7762169,20.6435916 19.0400529,20.6485534 C19.2194371,20.6492838 19.3893786,20.6359208 19.5488613,20.6081476 L19.5868149,20.6056489 C20.2017691,20.4839436 20.5485843,20.1080434 20.6556661,19.4931444 C20.7267299,19.0850724 21.1151463,18.8118732 21.5232184,18.8829371 C21.9312905,18.9540009 22.2044896,19.3424173 22.1334257,19.7504894 C21.9054686,21.0594946 21.081124,21.8387915 19.8747554,22.069113 C19.8529009,22.0766383 19.8297786,22.0818023 19.8062062,22.0859073 C19.3586641,22.1638447 18.8636864,22.1630664 18.3316013,22.0906199 C18.1729297,22.0700517 18.0112406,22.0427436 17.8463361,22.0089475 C17.2069261,21.8779046 16.5184107,21.6528027 15.7949592,21.3408611 C14.6512811,21.795191 13.4044774,22.0452455 12.0992704,22.0452455 C6.57642294,22.0452455 2.09927044,17.568093 2.09927044,12.0452455 C2.09927044,10.7395271 2.34952086,9.49225789 2.8046758,8.34878366 L2.72222187,8.14883049 L2.72222187,8.14883049 C2.56383498,7.76594031 2.43102255,7.39393119 2.32420107,7.03438643 C2.02463068,6.03114019 1.92396811,5.11521749 2.05876218,4.34118548 C2.06541634,4.30297509 2.07485298,4.26594724 2.08682768,4.23027384 C2.32605526,3.04522541 3.10250156,2.23665757 4.39690232,2.01124371 C4.80497438,1.94017986 5.19339078,2.21337899 5.26445463,2.62145105 Z" id="形状-path" fill="#000000" fill-rule="nonzero"></path>
                        <path d="M3.78622647,10.2647373 C3.6634563,10.8409069 3.59927044,11.4355805 3.59927044,12.0452455 C3.59927044,16.7396659 7.40485007,20.5452455 12.0992704,20.5452455 C12.7088982,20.5452455 13.3035365,20.4810675 13.8767975,20.3590991 C13.5072426,20.1403888 13.132396,19.9043902 12.753871,19.6507216 C11.5252584,18.8291506 10.2767032,17.8351767 9.0742261,16.7130729 C6.89081252,14.6820151 5.0445848,12.4101165 3.78622647,10.2647373 Z" id="形状-path" fill="#000000" fill-rule="nonzero"></path>
                        <path d="M12.0992704,2.04524551 C17.6221179,2.04524551 22.0992704,6.52239801 22.0992704,12.0452455 C22.0992704,15.0681086 20.7580111,17.7777038 18.638151,19.6113726 C18.547158,19.5979471 18.450247,19.5808107 18.3482455,19.5599061 C17.901969,19.4684447 17.4052857,19.3078853 16.8707662,19.0824234 C19.1206771,17.5521927 20.5992704,14.9713911 20.5992704,12.0452455 C20.5992704,7.35082514 16.7936908,3.54524551 12.0992704,3.54524551 C9.17355592,3.54524551 6.59308362,5.02340315 5.06392305,7.27364892 C4.84037223,6.74249886 4.6797263,6.24635691 4.58752317,5.79646152 C4.56617162,5.6922789 4.5488067,5.59367964 4.53528209,5.50075283 C6.3702024,3.38482719 9.07829839,2.04524551 12.0992704,2.04524551 Z" id="形状-path" fill="#000000" fill-rule="nonzero"></path>
                        <path d="M5.06392305,7.27364892 C5.51299672,8.68362852 7.12683209,10.8714593 9.90542918,13.8371413 C12.6840263,16.8028234 15.2894793,18.6519609 17.7217884,19.3845539 C20.0254226,17.109924 21.1772397,15.6332659 21.1772397,14.9545798 C21.1772397,13.9365507 22.3875665,9.74364178 18.5635153,5.50651997 C14.7394642,1.26939815 8.1228632,2.71971041 6.59339313,4.70352018 C5.57374641,6.02606002 5.06392305,6.8827696 5.06392305,7.27364892 Z" id="路径-2" fill="#000000"></path>
                    </g>
                </g>
            </g>
        </g>
    </g>
</svg>