<?xml version="1.0" encoding="UTF-8"?>
<svg width="25px" height="24px" viewBox="0 0 25 24" version="1.1" xmlns="http://www.w3.org/2000/svg" xmlns:xlink="http://www.w3.org/1999/xlink">
    <title>ic_public_home_filled</title>
    <g id="页面-1" stroke="none" stroke-width="1" fill="none" fill-rule="evenodd">
        <g id="首页" transform="translate(-63.000000, -940.000000)">
            <g id="BottomNavigationBar/Port/Item_3" transform="translate(0.000000, 933.000000)">
                <g id="Bottom-tab/item/normal" transform="translate(28.727273, 7.000000)">
                    <g id="ic_public_home_filled" transform="translate(35.000000, 0.000000)">
                        <rect id="矩形" x="0" y="0" width="24" height="24"></rect>
                        <path d="M12.6130773,4.1660135 L12.7111029,4.24242055 L12.7464962,4.27479678 L21.0581796,12.1988369 L21.0581796,18.8648386 C21.0581796,20.4625195 19.8092596,21.7684995 18.2344524,21.8597459 L18.0581796,21.8648386 L6.05817962,21.8648386 C4.46049874,21.8648386 3.15451874,20.6159186 3.06327231,19.0411114 L3.05817962,18.8648386 L3.05817962,12.1988369 L11.3699754,4.27479678 C11.7157802,3.94672556 12.2391614,3.91207619 12.6130773,4.1660135 Z M12.0581796,13.1148386 C10.4604987,13.1148386 9.15451874,14.3637586 9.06327231,15.9385658 L9.05817962,16.1148386 L9.05817962,19.8648386 L15.0581796,19.8648386 L15.0581796,16.1148386 C15.0581796,14.4579844 13.7150338,13.1148386 12.0581796,13.1148386 Z M9.45711765,1.9610199 C11.0036044,0.635475216 13.3176156,0.681183646 14.8111696,2.09814521 L22.4963883,9.38925013 L22.5763623,9.47439656 C22.897406,9.85860163 22.8865562,10.4309304 22.5335916,10.8029742 C22.1534759,11.2036368 21.52053,11.2202932 21.1198675,10.8401775 L13.4346488,3.54907261 L13.321525,3.4494676 C12.5487627,2.81863589 11.4165305,2.85183755 10.681607,3.54907261 L2.99638836,10.8401775 L2.90715353,10.9155625 C2.50659494,11.2159545 1.93562884,11.175018 1.58266423,10.8029742 C1.20254849,10.4023117 1.21920496,9.76936583 1.6198675,9.38925013 L9.3050862,2.09814521 L9.45711765,1.9610199 Z" id="path-1" fill="#000000" fill-rule="nonzero"></path>
                    </g>
                </g>
            </g>
        </g>
    </g>
</svg>