<?xml version="1.0" encoding="UTF-8"?>
<svg width="24px" height="24px" viewBox="0 0 24 24" version="1.1" xmlns="http://www.w3.org/2000/svg" xmlns:xlink="http://www.w3.org/1999/xlink">
    <title>ic_public_home</title>
    <g id="页面-1" stroke="none" stroke-width="1" fill="none" fill-rule="evenodd">
        <g id="我的" transform="translate(-64.000000, -731.000000)">
            <g id="BottomNavigationBar/Port/Item_3" transform="translate(0.000000, 724.000000)">
                <g id="Bottom-tab/item/normal" transform="translate(28.727273, 7.000000)">
                    <g id="ic_public_home" transform="translate(35.272727, 0.000000)">
                        <rect id="矩形" x="0" y="0" width="24" height="24"></rect>
                        <path d="M5.77276562,21.3621546 C4.27809023,21.3621546 3.06192433,20.1697137 3.02369247,18.6842565 L3.02369247,11.5574397 C3.03102922,11.5522252 3.03821801,11.5467901 3.04529132,11.5411342 L3.07783324,11.5127508 L4.52271187,10.1401546 L4.52276562,18.6121546 C4.52276562,19.2843433 5.0533423,19.8326091 5.71854321,19.8609997 L5.77276562,19.8621546 L8.27272727,19.862 L8.27276562,15.6121546 C8.27276562,13.6078954 9.84512667,11.9708809 11.823607,11.8673526 L12.0227656,11.8621546 C14.0938334,11.8621546 15.7727656,13.5410868 15.7727656,15.6121546 L15.7727656,15.6121546 L15.7727272,19.862 L18.2727656,19.8621546 C18.9449543,19.8621546 19.4932201,19.3315779 19.5216107,18.666377 L19.5227656,18.6121546 L19.5227118,10.1401546 L20.9283909,11.4746543 L20.9609328,11.5030377 C20.9806143,11.5187754 21.00119,11.5328031 21.0224649,11.5451257 L21.0227656,18.6121546 C21.0227656,20.10683 19.8303247,21.3229959 18.3448675,21.3612277 L18.2727656,21.3621546 L5.77276562,21.3621546 Z M12.0227656,13.3621546 C10.7801249,13.3621546 9.77276562,14.3695139 9.77276562,15.6121546 L9.77276562,15.6121546 L9.77276562,19.8621546 L14.2727656,19.8621546 L14.2727656,15.6121546 C14.2727656,14.4212906 13.347604,13.4465097 12.1768144,13.3673454 L12.1768144,13.3673454 L12.0227656,13.3621546 Z M9.58733949,1.89833518 C11.0377666,0.657777072 13.2064136,0.702082722 14.6055393,2.03125212 L14.6055393,2.03125212 L22.5392909,9.5683162 L22.6083589,9.6433744 C22.8395585,9.9315139 22.8279936,10.3533486 22.5664784,10.6286278 C22.281189,10.9289324 21.8064713,10.9411047 21.5061667,10.6558153 L21.5061667,10.6558153 L13.5724151,3.11875128 L13.4564217,3.01582101 C12.5864457,2.29530913 11.3037078,2.32961922 10.4730425,3.11875128 L10.4730425,3.11875128 L2.53929091,10.6558153 L2.46079171,10.7209459 C2.16118217,10.937075 1.74049449,10.903907 1.47897924,10.6286278 C1.19368987,10.3283232 1.20586212,9.8536055 1.50616671,9.5683162 L1.50616671,9.5683162 L9.43991833,2.03125212 L9.58733949,1.89833518 Z" id="path-1" fill="#000000" fill-rule="nonzero"></path>
                    </g>
                </g>
            </g>
        </g>
    </g>
</svg>